<?xml version="1.0" encoding="UTF-8" standalone="no"?>
<!DOCTYPE svg PUBLIC "-//W3C//DTD SVG 1.1//EN"
 "http://www.w3.org/Graphics/SVG/1.1/DTD/svg11.dtd">
<!-- Generated by graphviz version 2.43.0 (0)
 -->
<!-- Title: dependency&#45;cruiser output Pages: 1 -->
<svg width="505pt" height="292pt"
 viewBox="0.00 0.00 505.00 292.00" xmlns="http://www.w3.org/2000/svg" xmlns:xlink="http://www.w3.org/1999/xlink">
<g id="graph0" class="graph" transform="scale(1 1) rotate(0) translate(4 288)">
<title>dependency&#45;cruiser output</title>
<polygon fill="white" stroke="transparent" points="-4,4 -4,-288 501,-288 501,4 -4,4"/>
<g id="clust1" class="cluster">
<title>cluster_src</title>
<path fill="#ffffff" stroke="black" stroke-width="2" d="M20,-8C20,-8 477,-8 477,-8 483,-8 489,-14 489,-20 489,-20 489,-264 489,-264 489,-270 483,-276 477,-276 477,-276 20,-276 20,-276 14,-276 8,-270 8,-264 8,-264 8,-20 8,-20 8,-14 14,-8 20,-8"/>
<text text-anchor="middle" x="248.5" y="-264.8" font-family="Helvetica,sans-Serif" font-weight="bold" font-size="9.00">src</text>
</g>
<!-- src/admin/ -->
<g id="node1" class="node">
<title>src/admin/</title>
<g id="a_node1"><a xlink:href="src/admin/" xlink:title="admin">
<polygon fill="#ffffcc" stroke="black" points="290.5,-118 238.5,-118 236.5,-116 236.5,-100 288.5,-100 290.5,-102 290.5,-118"/>
<polyline fill="none" stroke="black" points="288.5,-116 236.5,-116 "/>
<polyline fill="none" stroke="black" points="288.5,-116 288.5,-100 "/>
<polyline fill="none" stroke="black" points="288.5,-116 290.5,-118 "/>
<text text-anchor="start" x="249" y="-106.8" font-family="Helvetica,sans-Serif" font-size="9.00">admin</text>
</a>
</g>
</g>
<!-- src/configService.ts -->
<g id="node2" class="node">
<title>src/configService.ts</title>
<g id="a_node2"><a xlink:href="src/configService.ts" xlink:title="configService.ts">
<path fill="#ddfeff" stroke="black" d="M406,-96C406,-96 329,-96 329,-96 326,-96 323,-93 323,-90 323,-90 323,-84 323,-84 323,-81 326,-78 329,-78 329,-78 406,-78 406,-78 409,-78 412,-81 412,-84 412,-84 412,-90 412,-90 412,-93 409,-96 406,-96"/>
<text text-anchor="start" x="331" y="-84.8" font-family="Helvetica,sans-Serif" font-size="9.00">configService.ts</text>
</a>
</g>
</g>
<!-- src/admin/&#45;&gt;src/configService.ts -->
<g id="edge1" class="edge">
<title>src/admin/&#45;&gt;src/configService.ts</title>
<path fill="none" stroke="#000000" stroke-width="2" stroke-opacity="0.200000" d="M290.5,-103.39C299.11,-101.54 308.97,-99.41 318.68,-97.31"/>
<polygon fill="#000000" fill-opacity="0.200000" stroke="#000000" stroke-width="2" stroke-opacity="0.200000" points="319.27,-99.34 324.69,-96.02 318.38,-95.23 319.27,-99.34"/>
</g>
<!-- src/logger.ts -->
<g id="node3" class="node">
<title>src/logger.ts</title>
<g id="a_node3"><a xlink:href="src/logger.ts" xlink:title="logger.ts">
<path fill="#ddfeff" stroke="black" d="M475,-148C475,-148 431,-148 431,-148 428,-148 425,-145 425,-142 425,-142 425,-136 425,-136 425,-133 428,-130 431,-130 431,-130 475,-130 475,-130 478,-130 481,-133 481,-136 481,-136 481,-142 481,-142 481,-145 478,-148 475,-148"/>
<text text-anchor="start" x="433" y="-136.8" font-family="Helvetica,sans-Serif" font-size="9.00">logger.ts</text>
</a>
</g>
</g>
<!-- src/admin/&#45;&gt;src/logger.ts -->
<g id="edge2" class="edge">
<title>src/admin/&#45;&gt;src/logger.ts</title>
<path fill="none" stroke="#000000" stroke-width="2" stroke-opacity="0.200000" d="M290.57,-113.17C324.05,-118.53 382.2,-127.83 418.81,-133.69"/>
<polygon fill="#000000" fill-opacity="0.200000" stroke="#000000" stroke-width="2" stroke-opacity="0.200000" points="418.68,-135.8 424.94,-134.67 419.34,-131.65 418.68,-135.8"/>
</g>
<!-- src/configService.ts&#45;&gt;src/logger.ts -->
<g id="edge8" class="edge">
<title>src/configService.ts&#45;&gt;src/logger.ts</title>
<path fill="none" stroke="#000000" stroke-width="2" stroke-opacity="0.200000" d="M383.89,-96C392.25,-100.95 402.74,-107.23 412,-113 418.92,-117.31 426.43,-122.15 433.06,-126.48"/>
<polygon fill="#000000" fill-opacity="0.200000" stroke="#000000" stroke-width="2" stroke-opacity="0.200000" points="432.21,-128.44 438.38,-129.97 434.51,-124.92 432.21,-128.44"/>
</g>
<!-- src/agent/ -->
<g id="node4" class="node">
<title>src/agent/</title>
<g id="a_node4"><a xlink:href="src/agent/" xlink:title="agent">
<polygon fill="#ffffcc" stroke="black" points="137,-140 85,-140 83,-138 83,-122 135,-122 137,-124 137,-140"/>
<polyline fill="none" stroke="black" points="135,-138 83,-138 "/>
<polyline fill="none" stroke="black" points="135,-138 135,-122 "/>
<polyline fill="none" stroke="black" points="135,-138 137,-140 "/>
<text text-anchor="start" x="96.5" y="-128.8" font-family="Helvetica,sans-Serif" font-size="9.00">agent</text>
</a>
</g>
</g>
<!-- src/agent/&#45;&gt;src/configService.ts -->
<g id="edge3" class="edge">
<title>src/agent/&#45;&gt;src/configService.ts</title>
<path fill="none" stroke="#000000" stroke-width="2" stroke-opacity="0.200000" d="M124.27,-121.8C143.61,-109 181.16,-86.46 217,-78 250.08,-70.19 288.35,-72.7 317.89,-77.03"/>
<polygon fill="#000000" fill-opacity="0.200000" stroke="#000000" stroke-width="2" stroke-opacity="0.200000" points="317.8,-79.14 324.05,-77.98 318.44,-74.99 317.8,-79.14"/>
</g>
<!-- src/agent/&#45;&gt;src/logger.ts -->
<g id="edge4" class="edge">
<title>src/agent/&#45;&gt;src/logger.ts</title>
<path fill="none" stroke="#000000" stroke-width="2" stroke-opacity="0.200000" d="M117.88,-121.81C123.14,-114.77 130.56,-104.79 137,-96 142.83,-88.04 141.53,-83.07 150,-78 175.78,-62.57 187.02,-71 217,-69 303.48,-63.22 337.26,-28.11 412,-72 431.18,-83.26 442.21,-107.64 447.66,-123.68"/>
<polygon fill="#000000" fill-opacity="0.200000" stroke="#000000" stroke-width="2" stroke-opacity="0.200000" points="445.71,-124.49 449.54,-129.57 449.72,-123.22 445.71,-124.49"/>
</g>
<!-- src/mastra/ -->
<g id="node5" class="node">
<title>src/mastra/</title>
<g id="a_node5"><a xlink:href="src/mastra/" xlink:title="mastra">
<polygon fill="#ffffcc" stroke="black" points="204,-48 152,-48 150,-46 150,-30 202,-30 204,-32 204,-48"/>
<polyline fill="none" stroke="black" points="202,-46 150,-46 "/>
<polyline fill="none" stroke="black" points="202,-46 202,-30 "/>
<polyline fill="none" stroke="black" points="202,-46 204,-48 "/>
<text text-anchor="start" x="161" y="-36.8" font-family="Helvetica,sans-Serif" font-size="9.00">mastra</text>
</a>
</g>
</g>
<!-- src/agent/&#45;&gt;src/mastra/ -->
<g id="edge5" class="edge">
<title>src/agent/&#45;&gt;src/mastra/</title>
<path fill="none" stroke="#000000" stroke-width="2" stroke-opacity="0.200000" d="M115.5,-121.87C124.72,-103.29 145.26,-62.35 150,-57 151.55,-55.25 153.3,-53.59 155.14,-52.03"/>
<polygon fill="#000000" fill-opacity="0.200000" stroke="#000000" stroke-width="2" stroke-opacity="0.200000" points="156.69,-53.49 160.16,-48.16 154.13,-50.16 156.69,-53.49"/>
</g>
<!-- src/storage/ -->
<g id="node6" class="node">
<title>src/storage/</title>
<g id="a_node6"><a xlink:href="src/storage/" xlink:title="storage">
<polygon fill="#ffffcc" stroke="black" points="290.5,-206 238.5,-206 236.5,-204 236.5,-188 288.5,-188 290.5,-190 290.5,-206"/>
<polyline fill="none" stroke="black" points="288.5,-204 236.5,-204 "/>
<polyline fill="none" stroke="black" points="288.5,-204 288.5,-188 "/>
<polyline fill="none" stroke="black" points="288.5,-204 290.5,-206 "/>
<text text-anchor="start" x="246.5" y="-194.8" font-family="Helvetica,sans-Serif" font-size="9.00">storage</text>
</a>
</g>
</g>
<!-- src/agent/&#45;&gt;src/storage/ -->
<g id="edge6" class="edge">
<title>src/agent/&#45;&gt;src/storage/</title>
<path fill="none" stroke="#000000" stroke-width="2" stroke-opacity="0.200000" d="M122.83,-140C130.33,-145.42 140.4,-152.19 150,-157 176.03,-170.05 207.36,-180.82 230.34,-187.89"/>
<polygon fill="#000000" fill-opacity="0.200000" stroke="#000000" stroke-width="2" stroke-opacity="0.200000" points="229.94,-189.96 236.29,-189.69 231.16,-185.94 229.94,-189.96"/>
</g>
<!-- src/server/ -->
<g id="node7" class="node">
<title>src/server/</title>
<g id="a_node7"><a xlink:href="src/server/" xlink:title="server">
<polygon fill="#ffffcc" stroke="black" points="204,-151 152,-151 150,-149 150,-133 202,-133 204,-135 204,-151"/>
<polyline fill="none" stroke="black" points="202,-149 150,-149 "/>
<polyline fill="none" stroke="black" points="202,-149 202,-133 "/>
<polyline fill="none" stroke="black" points="202,-149 204,-151 "/>
<text text-anchor="start" x="163" y="-139.8" font-family="Helvetica,sans-Serif" font-size="9.00">server</text>
</a>
</g>
</g>
<!-- src/agent/&#45;&gt;src/server/ -->
<g id="edge7" class="edge">
<title>src/agent/&#45;&gt;src/server/</title>
<path fill="none" stroke="#000000" stroke-width="2" stroke-opacity="0.200000" d="M137.06,-130.99C139.32,-131.31 141.61,-131.68 143.9,-132.07"/>
<polygon fill="#000000" fill-opacity="0.200000" stroke="#000000" stroke-width="2" stroke-opacity="0.200000" points="143.65,-134.16 149.93,-133.17 144.4,-130.03 143.65,-134.16"/>
</g>
<!-- src/mastra/&#45;&gt;src/configService.ts -->
<g id="edge18" class="edge">
<title>src/mastra/&#45;&gt;src/configService.ts</title>
<path fill="none" stroke="#000000" stroke-width="2" stroke-opacity="0.200000" d="M204.46,-44.32C231.23,-49.87 273.72,-59.12 310,-69 317.76,-71.11 326.04,-73.61 333.8,-76.06"/>
<polygon fill="#000000" fill-opacity="0.200000" stroke="#000000" stroke-width="2" stroke-opacity="0.200000" points="333.27,-78.1 339.62,-77.92 334.55,-74.1 333.27,-78.1"/>
</g>
<!-- src/mastra/&#45;&gt;src/logger.ts -->
<g id="edge19" class="edge">
<title>src/mastra/&#45;&gt;src/logger.ts</title>
<path fill="none" stroke="#000000" stroke-width="2" stroke-opacity="0.200000" d="M204.06,-32.72C250.56,-23.11 348.89,-10.24 412,-55 434.96,-71.29 445.2,-104.33 449.39,-123.77"/>
<polygon fill="#000000" fill-opacity="0.200000" stroke="#000000" stroke-width="2" stroke-opacity="0.200000" points="447.36,-124.32 450.6,-129.8 451.48,-123.5 447.36,-124.32"/>
</g>
<!-- src/storage/&#45;&gt;src/logger.ts -->
<g id="edge30" class="edge">
<title>src/storage/&#45;&gt;src/logger.ts</title>
<path fill="none" stroke="#000000" stroke-width="2" stroke-opacity="0.200000" d="M290.62,-191.59C331.47,-183.09 406.39,-167.34 412,-165 420.16,-161.6 428.48,-156.51 435.39,-151.73"/>
<polygon fill="#000000" fill-opacity="0.200000" stroke="#000000" stroke-width="2" stroke-opacity="0.200000" points="436.72,-153.37 440.38,-148.18 434.28,-149.95 436.72,-153.37"/>
</g>
<!-- src/server/&#45;&gt;src/admin/ -->
<g id="edge26" class="edge">
<title>src/server/&#45;&gt;src/admin/</title>
<path fill="none" stroke="#000000" stroke-width="2" stroke-opacity="0.200000" d="M196.46,-132.96C202.89,-129.95 210.2,-126.68 217,-124 221.35,-122.28 225.99,-120.6 230.57,-119.01"/>
<polygon fill="#000000" fill-opacity="0.200000" stroke="#000000" stroke-width="2" stroke-opacity="0.200000" points="231.32,-120.98 236.33,-117.06 229.97,-117 231.32,-120.98"/>
</g>
<!-- src/server/&#45;&gt;src/configService.ts -->
<g id="edge27" class="edge">
<title>src/server/&#45;&gt;src/configService.ts</title>
<path fill="none" stroke="#000000" stroke-width="2" stroke-opacity="0.200000" d="M182.31,-132.97C188.3,-121.57 200.32,-102.42 217,-94 247.53,-78.58 286.19,-77.17 316.55,-79.44"/>
<polygon fill="#000000" fill-opacity="0.200000" stroke="#000000" stroke-width="2" stroke-opacity="0.200000" points="316.74,-81.56 322.9,-79.97 317.09,-77.37 316.74,-81.56"/>
</g>
<!-- src/server/&#45;&gt;src/logger.ts -->
<g id="edge23" class="edge">
<title>src/server/&#45;&gt;src/logger.ts</title>
<path fill="none" stroke="#000000" stroke-width="2" stroke-opacity="0.200000" d="M203.76,-151.1C208.13,-152.31 212.66,-153.35 217,-154 288.38,-164.73 373.09,-153.52 418.79,-145.54"/>
<polygon fill="#000000" fill-opacity="0.200000" stroke="#000000" stroke-width="2" stroke-opacity="0.200000" points="419.16,-147.6 424.7,-144.48 418.42,-143.47 419.16,-147.6"/>
</g>
<!-- src/server/&#45;&gt;src/agent/ -->
<g id="edge22" class="edge">
<title>src/server/&#45;&gt;src/agent/</title>
<path fill="none" stroke="#000000" stroke-width="2" stroke-opacity="0.200000" d="M149.93,-142.01C147.68,-141.68 145.38,-141.32 143.09,-140.93"/>
<polygon fill="#000000" fill-opacity="0.200000" stroke="#000000" stroke-width="2" stroke-opacity="0.200000" points="143.34,-138.84 137.06,-139.83 142.59,-142.97 143.34,-138.84"/>
</g>
<!-- src/server/&#45;&gt;src/storage/ -->
<g id="edge25" class="edge">
<title>src/server/&#45;&gt;src/storage/</title>
<path fill="none" stroke="#000000" stroke-width="2" stroke-opacity="0.200000" d="M185.87,-151.26C193.23,-159.45 204.88,-171.27 217,-179 221.22,-181.69 225.91,-184.1 230.63,-186.21"/>
<polygon fill="#000000" fill-opacity="0.200000" stroke="#000000" stroke-width="2" stroke-opacity="0.200000" points="229.81,-188.14 236.15,-188.55 231.45,-184.28 229.81,-188.14"/>
</g>
<!-- src/runtimeConfig.ts -->
<g id="node9" class="node">
<title>src/runtimeConfig.ts</title>
<g id="a_node9"><a xlink:href="src/runtimeConfig.ts" xlink:title="runtimeConfig.ts">
<path fill="#ddfeff" stroke="black" d="M304,-236C304,-236 223,-236 223,-236 220,-236 217,-233 217,-230 217,-230 217,-224 217,-224 217,-221 220,-218 223,-218 223,-218 304,-218 304,-218 307,-218 310,-221 310,-224 310,-224 310,-230 310,-230 310,-233 307,-236 304,-236"/>
<text text-anchor="start" x="225" y="-224.8" font-family="Helvetica,sans-Serif" font-size="9.00">runtimeConfig.ts</text>
</a>
</g>
</g>
<!-- src/server/&#45;&gt;src/runtimeConfig.ts -->
<g id="edge24" class="edge">
<title>src/server/&#45;&gt;src/runtimeConfig.ts</title>
<path fill="none" stroke="#000000" stroke-width="2" stroke-opacity="0.200000" d="M180.68,-151.14C185.5,-166.03 197.05,-195.52 217,-212 218.23,-213.02 219.54,-213.97 220.9,-214.86"/>
<polygon fill="#000000" fill-opacity="0.200000" stroke="#000000" stroke-width="2" stroke-opacity="0.200000" points="220.12,-216.83 226.38,-217.97 222.2,-213.18 220.12,-216.83"/>
</g>
<!-- src/integrations/ -->
<g id="node10" class="node">
<title>src/integrations/</title>
<g id="a_node10"><a xlink:href="src/integrations/" xlink:title="integrations">
<polygon fill="#ffffcc" stroke="black" points="299,-148 230,-148 228,-146 228,-130 297,-130 299,-132 299,-148"/>
<polyline fill="none" stroke="black" points="297,-146 228,-146 "/>
<polyline fill="none" stroke="black" points="297,-146 297,-130 "/>
<polyline fill="none" stroke="black" points="297,-146 299,-148 "/>
<text text-anchor="start" x="236" y="-136.8" font-family="Helvetica,sans-Serif" font-size="9.00">integrations</text>
</a>
</g>
</g>
<!-- src/server/&#45;&gt;src/integrations/ -->
<g id="edge28" class="edge">
<title>src/server/&#45;&gt;src/integrations/</title>
<path fill="none" stroke="#000000" stroke-width="2" stroke-opacity="0.200000" d="M204.27,-141.07C209.75,-140.87 215.65,-140.66 221.52,-140.45"/>
<polygon fill="#000000" fill-opacity="0.200000" stroke="#000000" stroke-width="2" stroke-opacity="0.200000" points="221.93,-142.54 227.85,-140.23 221.78,-138.34 221.93,-142.54"/>
</g>
<!-- src/shared/ -->
<g id="node11" class="node">
<title>src/shared/</title>
<g id="a_node11"><a xlink:href="src/shared/" xlink:title="shared">
<polygon fill="#ffffcc" stroke="black" points="394.5,-209 342.5,-209 340.5,-207 340.5,-191 392.5,-191 394.5,-193 394.5,-209"/>
<polyline fill="none" stroke="black" points="392.5,-207 340.5,-207 "/>
<polyline fill="none" stroke="black" points="392.5,-207 392.5,-191 "/>
<polyline fill="none" stroke="black" points="392.5,-207 394.5,-209 "/>
<text text-anchor="start" x="352" y="-197.8" font-family="Helvetica,sans-Serif" font-size="9.00">shared</text>
</a>
</g>
</g>
<!-- src/server/&#45;&gt;src/shared/ -->
<g id="edge29" class="edge">
<title>src/server/&#45;&gt;src/shared/</title>
<path fill="none" stroke="#000000" stroke-width="2" stroke-opacity="0.200000" d="M190.78,-151.09C198.13,-155.91 207.72,-161.54 217,-165 256.37,-179.68 269.23,-171.82 310,-182 318.04,-184.01 326.61,-186.53 334.58,-189.05"/>
<polygon fill="#000000" fill-opacity="0.200000" stroke="#000000" stroke-width="2" stroke-opacity="0.200000" points="334.18,-191.13 340.54,-190.96 335.47,-187.13 334.18,-191.13"/>
</g>
<!-- src/index.ts -->
<g id="node8" class="node">
<title>src/index.ts</title>
<g id="a_node8"><a xlink:href="src/index.ts" xlink:title="index.ts">
<path fill="#ddfeff" stroke="black" d="M64,-162C64,-162 22,-162 22,-162 19,-162 16,-159 16,-156 16,-156 16,-150 16,-150 16,-147 19,-144 22,-144 22,-144 64,-144 64,-144 67,-144 70,-147 70,-150 70,-150 70,-156 70,-156 70,-159 67,-162 64,-162"/>
<text text-anchor="start" x="24.5" y="-150.8" font-family="Helvetica,sans-Serif" font-size="9.00">index.ts</text>
</a>
</g>
</g>
<!-- src/index.ts&#45;&gt;src/configService.ts -->
<g id="edge10" class="edge">
<title>src/index.ts&#45;&gt;src/configService.ts</title>
<path fill="none" stroke="#000000" stroke-width="2" stroke-opacity="0.200000" d="M46.18,-143.9C50.63,-126.92 62.14,-89.97 83,-66 106.07,-39.49 116.22,-33.71 150,-24 218.87,-4.2 244.52,-14.88 310,-44 326.21,-51.21 342.06,-63.91 352.82,-73.64"/>
<polygon fill="#000000" fill-opacity="0.200000" stroke="#000000" stroke-width="2" stroke-opacity="0.200000" points="351.56,-75.34 357.39,-77.88 354.42,-72.26 351.56,-75.34"/>
</g>
<!-- src/index.ts&#45;&gt;src/logger.ts -->
<g id="edge11" class="edge">
<title>src/index.ts&#45;&gt;src/logger.ts</title>
<path fill="none" stroke="#000000" stroke-width="2" stroke-opacity="0.200000" d="M50.21,-162.2C67.24,-186.23 117.34,-249 176,-249 176,-249 176,-249 264.5,-249 330.72,-249 359.08,-267.8 412,-228 435.94,-209.99 445.89,-174.39 449.76,-154.09"/>
<polygon fill="#000000" fill-opacity="0.200000" stroke="#000000" stroke-width="2" stroke-opacity="0.200000" points="451.85,-154.36 450.81,-148.09 447.71,-153.63 451.85,-154.36"/>
</g>
<!-- src/index.ts&#45;&gt;src/agent/ -->
<g id="edge9" class="edge">
<title>src/index.ts&#45;&gt;src/agent/</title>
<path fill="none" stroke="#000000" stroke-width="2" stroke-opacity="0.200000" d="M70.06,-144.18C72.32,-143.42 74.61,-142.64 76.9,-141.86"/>
<polygon fill="#000000" fill-opacity="0.200000" stroke="#000000" stroke-width="2" stroke-opacity="0.200000" points="77.92,-143.74 82.93,-139.82 76.57,-139.76 77.92,-143.74"/>
</g>
<!-- src/index.ts&#45;&gt;src/mastra/ -->
<g id="edge12" class="edge">
<title>src/index.ts&#45;&gt;src/mastra/</title>
<path fill="none" stroke="#000000" stroke-width="2" stroke-opacity="0.200000" d="M53.24,-143.78C71.18,-126.09 112.26,-86.52 150,-57 152.31,-55.19 154.79,-53.36 157.27,-51.58"/>
<polygon fill="#000000" fill-opacity="0.200000" stroke="#000000" stroke-width="2" stroke-opacity="0.200000" points="158.59,-53.22 162.29,-48.05 156.17,-49.78 158.59,-53.22"/>
</g>
<!-- src/index.ts&#45;&gt;src/storage/ -->
<g id="edge15" class="edge">
<title>src/index.ts&#45;&gt;src/storage/</title>
<path fill="none" stroke="#000000" stroke-width="2" stroke-opacity="0.200000" d="M70.36,-158.31C110.57,-166.41 187.15,-181.83 230.5,-190.56"/>
<polygon fill="#000000" fill-opacity="0.200000" stroke="#000000" stroke-width="2" stroke-opacity="0.200000" points="230.09,-192.62 236.39,-191.74 230.92,-188.5 230.09,-192.62"/>
</g>
<!-- src/index.ts&#45;&gt;src/server/ -->
<g id="edge14" class="edge">
<title>src/index.ts&#45;&gt;src/server/</title>
<path fill="none" stroke="#000000" stroke-width="2" stroke-opacity="0.200000" d="M70.07,-151.23C88.72,-149.91 114.42,-148.01 137,-146 139.23,-145.8 141.54,-145.59 143.86,-145.37"/>
<polygon fill="#000000" fill-opacity="0.200000" stroke="#000000" stroke-width="2" stroke-opacity="0.200000" points="144.23,-147.44 150,-144.77 143.82,-143.26 144.23,-147.44"/>
</g>
<!-- src/index.ts&#45;&gt;src/runtimeConfig.ts -->
<g id="edge13" class="edge">
<title>src/index.ts&#45;&gt;src/runtimeConfig.ts</title>
<path fill="none" stroke="#000000" stroke-width="2" stroke-opacity="0.200000" d="M63.68,-162.05C69.81,-164.74 76.64,-167.61 83,-170 131.18,-188.09 187.97,-205.49 224.57,-216.2"/>
<polygon fill="#000000" fill-opacity="0.200000" stroke="#000000" stroke-width="2" stroke-opacity="0.200000" points="224.36,-218.33 230.71,-217.99 225.54,-214.29 224.36,-218.33"/>
</g>
<!-- src/runtimeConfig.ts&#45;&gt;src/logger.ts -->
<g id="edge20" class="edge">
<title>src/runtimeConfig.ts&#45;&gt;src/logger.ts</title>
<path fill="none" stroke="#000000" stroke-width="2" stroke-opacity="0.200000" d="M310.09,-234.11C341.28,-236.53 382.2,-234.68 412,-215 433.16,-201.02 443.86,-172.06 448.66,-154.2"/>
<polygon fill="#000000" fill-opacity="0.200000" stroke="#000000" stroke-width="2" stroke-opacity="0.200000" points="450.75,-154.51 450.17,-148.17 446.68,-153.49 450.75,-154.51"/>
</g>
<!-- src/runtimeConfig.ts&#45;&gt;src/shared/ -->
<g id="edge21" class="edge">
<title>src/runtimeConfig.ts&#45;&gt;src/shared/</title>
<path fill="none" stroke="#000000" stroke-opacity="0.200000" d="M298.75,-217.93C310.17,-214.91 322.86,-211.55 334.14,-208.57"/>
<polygon fill="none" stroke="#000000" stroke-opacity="0.200000" points="334.98,-210.52 340.25,-206.95 333.91,-206.45 334.98,-210.52"/>
</g>
<!-- src/integrations/&#45;&gt;src/configService.ts -->
<g id="edge16" class="edge">
<title>src/integrations/&#45;&gt;src/configService.ts</title>
<path fill="none" stroke="#000000" stroke-width="2" stroke-opacity="0.200000" d="M295.77,-129.9C300.62,-128.14 305.5,-126.17 310,-124 323.98,-117.26 338.6,-107.6 349.47,-99.84"/>
<polygon fill="#000000" fill-opacity="0.200000" stroke="#000000" stroke-width="2" stroke-opacity="0.200000" points="350.86,-101.43 354.49,-96.21 348.4,-98.03 350.86,-101.43"/>
</g>
<!-- src/integrations/&#45;&gt;src/logger.ts -->
<g id="edge17" class="edge">
<title>src/integrations/&#45;&gt;src/logger.ts</title>
<path fill="none" stroke="#000000" stroke-width="2" stroke-opacity="0.200000" d="M299.33,-139C333.53,-139 385.31,-139 418.9,-139"/>
<polygon fill="#000000" fill-opacity="0.200000" stroke="#000000" stroke-width="2" stroke-opacity="0.200000" points="418.95,-141.1 424.95,-139 418.95,-136.9 418.95,-141.1"/>
</g>
</g>
</svg>
