<?xml version="1.0" encoding="UTF-8" standalone="no"?>
<!DOCTYPE svg PUBLIC "-//W3C//DTD SVG 1.1//EN"
 "http://www.w3.org/Graphics/SVG/1.1/DTD/svg11.dtd">
<!-- Generated by graphviz version 2.43.0 (0)
 -->
<!-- Title: %3 Pages: 1 -->
<svg width="448pt" height="959pt"
 viewBox="0.00 0.00 447.87 959.20" xmlns="http://www.w3.org/2000/svg" xmlns:xlink="http://www.w3.org/1999/xlink">
<g id="graph0" class="graph" transform="scale(1 1) rotate(0) translate(21.6 937.6)">
<title>%3</title>
<polygon fill="white" stroke="transparent" points="-21.6,21.6 -21.6,-937.6 426.27,-937.6 426.27,21.6 -21.6,21.6"/>
<text text-anchor="middle" x="202.34" y="-892.8" font-family="Helvetica,sans-Serif" font-size="24.00">core&#45;rust internal dependencies</text>
<g id="clust1" class="cluster">
<title>cluster_application</title>
<path fill="none" stroke="#d0d7de" d="M81.67,-8C81.67,-8 231.67,-8 231.67,-8 237.67,-8 243.67,-14 243.67,-20 243.67,-20 243.67,-862 243.67,-862 243.67,-868 237.67,-874 231.67,-874 231.67,-874 81.67,-874 81.67,-874 75.67,-874 69.67,-868 69.67,-862 69.67,-862 69.67,-20 69.67,-20 69.67,-14 75.67,-8 81.67,-8"/>
<text text-anchor="middle" x="156.67" y="-850.8" font-family="Helvetica,sans-Serif" font-size="24.00">Application</text>
</g>
<!-- tsuki_core_rust::application::debug_service -->
<g id="node1" class="node">
<title>tsuki_core_rust::application::debug_service</title>
<path fill="#dcf5e4" stroke="#7a7a7a" d="M191.17,-312C191.17,-312 122.17,-312 122.17,-312 116.17,-312 110.17,-306 110.17,-300 110.17,-300 110.17,-288 110.17,-288 110.17,-282 116.17,-276 122.17,-276 122.17,-276 191.17,-276 191.17,-276 197.17,-276 203.17,-282 203.17,-288 203.17,-288 203.17,-300 203.17,-300 203.17,-306 197.17,-312 191.17,-312"/>
<text text-anchor="middle" x="156.67" y="-291.2" font-family="Helvetica,sans-Serif" font-size="11.00">debug_service</text>
</g>
<!-- tsuki_core_rust::application::event_service -->
<g id="node2" class="node">
<title>tsuki_core_rust::application::event_service</title>
<path fill="#dcf5e4" stroke="#7a7a7a" d="M190.17,-507C190.17,-507 123.17,-507 123.17,-507 117.17,-507 111.17,-501 111.17,-495 111.17,-495 111.17,-483 111.17,-483 111.17,-477 117.17,-471 123.17,-471 123.17,-471 190.17,-471 190.17,-471 196.17,-471 202.17,-477 202.17,-483 202.17,-483 202.17,-495 202.17,-495 202.17,-501 196.17,-507 190.17,-507"/>
<text text-anchor="middle" x="156.67" y="-486.2" font-family="Helvetica,sans-Serif" font-size="11.00">event_service</text>
</g>
<!-- tsuki_core_rust::application::debug_service&#45;&gt;tsuki_core_rust::application::event_service -->
<g id="edge4" class="edge">
<title>tsuki_core_rust::application::debug_service&#45;&gt;tsuki_core_rust::application::event_service</title>
<path fill="none" stroke="#7f8c8d" stroke-dasharray="5,2" d="M109.96,-299.01C82.76,-304.61 50.58,-316.46 33.67,-341.5 8.55,-378.7 8.55,-405.3 33.67,-442.5 49.39,-465.77 78.4,-477.42 104.3,-483.23"/>
<polygon fill="#7f8c8d" stroke="#7f8c8d" points="103.81,-485.63 111.16,-484.66 104.8,-480.83 103.81,-485.63"/>
</g>
<!-- tsuki_core_rust::application::execution_service -->
<g id="node3" class="node">
<title>tsuki_core_rust::application::execution_service</title>
<path fill="#dcf5e4" stroke="#7a7a7a" d="M201.17,-377C201.17,-377 112.17,-377 112.17,-377 106.17,-377 100.17,-371 100.17,-365 100.17,-365 100.17,-353 100.17,-353 100.17,-347 106.17,-341 112.17,-341 112.17,-341 201.17,-341 201.17,-341 207.17,-341 213.17,-347 213.17,-353 213.17,-353 213.17,-365 213.17,-365 213.17,-371 207.17,-377 201.17,-377"/>
<text text-anchor="middle" x="156.67" y="-356.2" font-family="Helvetica,sans-Serif" font-size="11.00">execution_service</text>
</g>
<!-- tsuki_core_rust::application::debug_service&#45;&gt;tsuki_core_rust::application::execution_service -->
<g id="edge5" class="edge">
<title>tsuki_core_rust::application::debug_service&#45;&gt;tsuki_core_rust::application::execution_service</title>
<path fill="none" stroke="#7f8c8d" stroke-dasharray="5,2" d="M156.67,-312.03C156.67,-319.18 156.67,-326.34 156.67,-333.5"/>
<polygon fill="#7f8c8d" stroke="#7f8c8d" points="154.22,-333.65 156.67,-340.65 159.12,-333.65 154.22,-333.65"/>
</g>
<!-- tsuki_core_rust::application::history_service -->
<g id="node4" class="node">
<title>tsuki_core_rust::application::history_service</title>
<path fill="#dcf5e4" stroke="#7a7a7a" d="M193.67,-832C193.67,-832 119.67,-832 119.67,-832 113.67,-832 107.67,-826 107.67,-820 107.67,-820 107.67,-808 107.67,-808 107.67,-802 113.67,-796 119.67,-796 119.67,-796 193.67,-796 193.67,-796 199.67,-796 205.67,-802 205.67,-808 205.67,-808 205.67,-820 205.67,-820 205.67,-826 199.67,-832 193.67,-832"/>
<text text-anchor="middle" x="156.67" y="-811.2" font-family="Helvetica,sans-Serif" font-size="11.00">history_service</text>
</g>
<!-- tsuki_core_rust::application::debug_service&#45;&gt;tsuki_core_rust::application::history_service -->
<g id="edge6" class="edge">
<title>tsuki_core_rust::application::debug_service&#45;&gt;tsuki_core_rust::application::history_service</title>
<path fill="none" stroke="#7f8c8d" stroke-dasharray="5,2" d="M109.96,-299.01C82.76,-304.61 50.58,-316.46 33.67,-341.5 7.18,-380.73 7.18,-728.27 33.67,-767.5 48.62,-789.64 75.6,-801.25 100.48,-807.34"/>
<polygon fill="#7f8c8d" stroke="#7f8c8d" points="100.07,-809.76 107.44,-808.91 101.15,-804.98 100.07,-809.76"/>
</g>
<!-- tsuki_core_rust::application::module_bootstrap -->
<g id="node7" class="node">
<title>tsuki_core_rust::application::module_bootstrap</title>
<path fill="#dcf5e4" stroke="#7a7a7a" d="M201.67,-767C201.67,-767 111.67,-767 111.67,-767 105.67,-767 99.67,-761 99.67,-755 99.67,-755 99.67,-743 99.67,-743 99.67,-737 105.67,-731 111.67,-731 111.67,-731 201.67,-731 201.67,-731 207.67,-731 213.67,-737 213.67,-743 213.67,-743 213.67,-755 213.67,-755 213.67,-761 207.67,-767 201.67,-767"/>
<text text-anchor="middle" x="156.67" y="-746.2" font-family="Helvetica,sans-Serif" font-size="11.00">module_bootstrap</text>
</g>
<!-- tsuki_core_rust::application::debug_service&#45;&gt;tsuki_core_rust::application::module_bootstrap -->
<g id="edge7" class="edge">
<title>tsuki_core_rust::application::debug_service&#45;&gt;tsuki_core_rust::application::module_bootstrap</title>
<path fill="none" stroke="#7f8c8d" stroke-dasharray="5,2" d="M109.96,-299.01C82.76,-304.61 50.58,-316.46 33.67,-341.5 -11.22,-407.98 -11.22,-636.02 33.67,-702.5 47.04,-722.3 70.04,-733.69 92.56,-740.22"/>
<polygon fill="#7f8c8d" stroke="#7f8c8d" points="92.13,-742.64 99.53,-742.1 93.41,-737.91 92.13,-742.64"/>
</g>
<!-- tsuki_core_rust::application::router_service -->
<g id="node9" class="node">
<title>tsuki_core_rust::application::router_service</title>
<path fill="#dcf5e4" stroke="#7a7a7a" d="M191.17,-442C191.17,-442 122.17,-442 122.17,-442 116.17,-442 110.17,-436 110.17,-430 110.17,-430 110.17,-418 110.17,-418 110.17,-412 116.17,-406 122.17,-406 122.17,-406 191.17,-406 191.17,-406 197.17,-406 203.17,-412 203.17,-418 203.17,-418 203.17,-430 203.17,-430 203.17,-436 197.17,-442 191.17,-442"/>
<text text-anchor="middle" x="156.67" y="-421.2" font-family="Helvetica,sans-Serif" font-size="11.00">router_service</text>
</g>
<!-- tsuki_core_rust::application::debug_service&#45;&gt;tsuki_core_rust::application::router_service -->
<g id="edge8" class="edge">
<title>tsuki_core_rust::application::debug_service&#45;&gt;tsuki_core_rust::application::router_service</title>
<path fill="none" stroke="#7f8c8d" stroke-dasharray="5,2" d="M109.96,-299.01C82.76,-304.61 50.58,-316.46 33.67,-341.5 24.72,-354.76 24.72,-364.24 33.67,-377.5 49.09,-400.33 77.29,-411.97 102.81,-417.89"/>
<polygon fill="#7f8c8d" stroke="#7f8c8d" points="102.57,-420.35 109.92,-419.42 103.59,-415.55 102.57,-420.35"/>
</g>
<!-- tsuki_core_rust -->
<g id="node14" class="node">
<title>tsuki_core_rust</title>
<path fill="#7a7a7a" stroke="#7a7a7a" d="M392.67,-507C392.67,-507 319.67,-507 319.67,-507 313.67,-507 307.67,-501 307.67,-495 307.67,-495 307.67,-483 307.67,-483 307.67,-477 313.67,-471 319.67,-471 319.67,-471 392.67,-471 392.67,-471 398.67,-471 404.67,-477 404.67,-483 404.67,-483 404.67,-495 404.67,-495 404.67,-501 398.67,-507 392.67,-507"/>
<text text-anchor="middle" x="356.17" y="-486.2" font-family="Helvetica,sans-Serif" font-size="11.00">tsuki_core_rust</text>
</g>
<!-- tsuki_core_rust::application::debug_service&#45;&gt;tsuki_core_rust -->
<g id="edge3" class="edge">
<title>tsuki_core_rust::application::debug_service&#45;&gt;tsuki_core_rust</title>
<path fill="none" stroke="#7f8c8d" stroke-dasharray="5,2" d="M203.21,-305.74C217.13,-310.78 231.86,-317.7 243.67,-327 291.7,-364.83 327.09,-429 344.03,-464.15"/>
<polygon fill="#7f8c8d" stroke="#7f8c8d" points="341.95,-465.5 347.17,-470.78 346.38,-463.4 341.95,-465.5"/>
</g>
<!-- tsuki_core_rust::application::event_service&#45;&gt;tsuki_core_rust -->
<g id="edge9" class="edge">
<title>tsuki_core_rust::application::event_service&#45;&gt;tsuki_core_rust</title>
<path fill="none" stroke="#7f8c8d" stroke-dasharray="5,2" d="M202.49,-480.04C231.46,-478.2 269.37,-478.01 300.17,-479.48"/>
<polygon fill="#7f8c8d" stroke="#7f8c8d" points="300.31,-481.94 307.43,-479.86 300.57,-477.04 300.31,-481.94"/>
</g>
<!-- tsuki_core_rust::application::execution_service&#45;&gt;tsuki_core_rust::application::event_service -->
<g id="edge11" class="edge">
<title>tsuki_core_rust::application::execution_service&#45;&gt;tsuki_core_rust::application::event_service</title>
<path fill="none" stroke="#7f8c8d" stroke-dasharray="5,2" d="M99.88,-366.34C75.18,-372.68 48.53,-384.49 33.67,-406.5 24.72,-419.76 24.72,-429.24 33.67,-442.5 49.39,-465.77 78.4,-477.42 104.3,-483.23"/>
<polygon fill="#7f8c8d" stroke="#7f8c8d" points="103.81,-485.63 111.16,-484.66 104.8,-480.83 103.81,-485.63"/>
</g>
<!-- tsuki_core_rust::application::execution_service&#45;&gt;tsuki_core_rust::application::history_service -->
<g id="edge12" class="edge">
<title>tsuki_core_rust::application::execution_service&#45;&gt;tsuki_core_rust::application::history_service</title>
<path fill="none" stroke="#7f8c8d" stroke-dasharray="5,2" d="M99.88,-366.34C75.18,-372.68 48.53,-384.49 33.67,-406.5 -11.22,-472.98 -11.22,-701.02 33.67,-767.5 48.62,-789.64 75.6,-801.25 100.48,-807.34"/>
<polygon fill="#7f8c8d" stroke="#7f8c8d" points="100.07,-809.76 107.44,-808.91 101.15,-804.98 100.07,-809.76"/>
</g>
<!-- tsuki_core_rust::application::execution_service&#45;&gt;tsuki_core_rust::application::module_bootstrap -->
<g id="edge13" class="edge">
<title>tsuki_core_rust::application::execution_service&#45;&gt;tsuki_core_rust::application::module_bootstrap</title>
<path fill="none" stroke="#7f8c8d" stroke-dasharray="5,2" d="M99.88,-366.34C75.18,-372.68 48.53,-384.49 33.67,-406.5 -3.14,-461.01 -3.14,-647.99 33.67,-702.5 47.04,-722.3 70.04,-733.69 92.56,-740.22"/>
<polygon fill="#7f8c8d" stroke="#7f8c8d" points="92.13,-742.64 99.53,-742.1 93.41,-737.91 92.13,-742.64"/>
</g>
<!-- tsuki_core_rust::application::execution_service&#45;&gt;tsuki_core_rust::application::router_service -->
<g id="edge14" class="edge">
<title>tsuki_core_rust::application::execution_service&#45;&gt;tsuki_core_rust::application::router_service</title>
<path fill="none" stroke="#7f8c8d" stroke-dasharray="5,2" d="M156.67,-377.03C156.67,-384.18 156.67,-391.34 156.67,-398.5"/>
<polygon fill="#7f8c8d" stroke="#7f8c8d" points="154.22,-398.65 156.67,-405.65 159.12,-398.65 154.22,-398.65"/>
</g>
<!-- tsuki_core_rust::application::usage_service -->
<g id="node13" class="node">
<title>tsuki_core_rust::application::usage_service</title>
<path fill="#dcf5e4" stroke="#7a7a7a" d="M191.17,-637C191.17,-637 122.17,-637 122.17,-637 116.17,-637 110.17,-631 110.17,-625 110.17,-625 110.17,-613 110.17,-613 110.17,-607 116.17,-601 122.17,-601 122.17,-601 191.17,-601 191.17,-601 197.17,-601 203.17,-607 203.17,-613 203.17,-613 203.17,-625 203.17,-625 203.17,-631 197.17,-637 191.17,-637"/>
<text text-anchor="middle" x="156.67" y="-616.2" font-family="Helvetica,sans-Serif" font-size="11.00">usage_service</text>
</g>
<!-- tsuki_core_rust::application::execution_service&#45;&gt;tsuki_core_rust::application::usage_service -->
<g id="edge15" class="edge">
<title>tsuki_core_rust::application::execution_service&#45;&gt;tsuki_core_rust::application::usage_service</title>
<path fill="none" stroke="#7f8c8d" stroke-dasharray="5,2" d="M99.88,-366.34C75.18,-372.68 48.53,-384.49 33.67,-406.5 -7.62,-467.64 -7.62,-511.36 33.67,-572.5 49.09,-595.33 77.29,-606.97 102.81,-612.89"/>
<polygon fill="#7f8c8d" stroke="#7f8c8d" points="102.57,-615.35 109.92,-614.42 103.59,-610.55 102.57,-615.35"/>
</g>
<!-- tsuki_core_rust::application::execution_service&#45;&gt;tsuki_core_rust -->
<g id="edge10" class="edge">
<title>tsuki_core_rust::application::execution_service&#45;&gt;tsuki_core_rust</title>
<path fill="none" stroke="#7f8c8d" stroke-dasharray="5,2" d="M213.16,-377C223.61,-381.3 234.21,-386.32 243.67,-392 277.93,-412.59 311.79,-444.05 333.04,-465.52"/>
<polygon fill="#7f8c8d" stroke="#7f8c8d" points="331.52,-467.46 338.17,-470.75 335.02,-464.03 331.52,-467.46"/>
</g>
<!-- tsuki_core_rust::application::history_service&#45;&gt;tsuki_core_rust -->
<g id="edge16" class="edge">
<title>tsuki_core_rust::application::history_service&#45;&gt;tsuki_core_rust</title>
<path fill="none" stroke="#7f8c8d" stroke-dasharray="5,2" d="M205.97,-803.98C219.54,-799.21 233.38,-792.21 243.67,-782 320.75,-705.49 345.41,-570.24 352.54,-514.3"/>
<polygon fill="#7f8c8d" stroke="#7f8c8d" points="354.98,-514.51 353.4,-507.26 350.12,-513.91 354.98,-514.51"/>
</g>
<!-- tsuki_core_rust::application::improve_approval_service -->
<g id="node5" class="node">
<title>tsuki_core_rust::application::improve_approval_service</title>
<path fill="#dcf5e4" stroke="#7a7a7a" d="M223.67,-702C223.67,-702 89.67,-702 89.67,-702 83.67,-702 77.67,-696 77.67,-690 77.67,-690 77.67,-678 77.67,-678 77.67,-672 83.67,-666 89.67,-666 89.67,-666 223.67,-666 223.67,-666 229.67,-666 235.67,-672 235.67,-678 235.67,-678 235.67,-690 235.67,-690 235.67,-696 229.67,-702 223.67,-702"/>
<text text-anchor="middle" x="156.67" y="-681.2" font-family="Helvetica,sans-Serif" font-size="11.00">improve_approval_service</text>
</g>
<!-- tsuki_core_rust::application::improve_approval_service&#45;&gt;tsuki_core_rust::application::module_bootstrap -->
<g id="edge18" class="edge">
<title>tsuki_core_rust::application::improve_approval_service&#45;&gt;tsuki_core_rust::application::module_bootstrap</title>
<path fill="none" stroke="#7f8c8d" stroke-dasharray="5,2" d="M156.67,-702.03C156.67,-709.18 156.67,-716.34 156.67,-723.5"/>
<polygon fill="#7f8c8d" stroke="#7f8c8d" points="154.22,-723.65 156.67,-730.65 159.12,-723.65 154.22,-723.65"/>
</g>
<!-- tsuki_core_rust::application::improve_approval_service&#45;&gt;tsuki_core_rust -->
<g id="edge17" class="edge">
<title>tsuki_core_rust::application::improve_approval_service&#45;&gt;tsuki_core_rust</title>
<path fill="none" stroke="#7f8c8d" stroke-dasharray="5,2" d="M220.26,-665.98C228.57,-662.12 236.64,-657.49 243.67,-652 292.16,-614.09 327.48,-549.19 344.25,-513.79"/>
<polygon fill="#7f8c8d" stroke="#7f8c8d" points="346.62,-514.51 347.35,-507.13 342.18,-512.44 346.62,-514.51"/>
</g>
<!-- tsuki_core_rust::application::improve_service -->
<g id="node6" class="node">
<title>tsuki_core_rust::application::improve_service</title>
<path fill="#dcf5e4" stroke="#7a7a7a" d="M197.17,-572C197.17,-572 116.17,-572 116.17,-572 110.17,-572 104.17,-566 104.17,-560 104.17,-560 104.17,-548 104.17,-548 104.17,-542 110.17,-536 116.17,-536 116.17,-536 197.17,-536 197.17,-536 203.17,-536 209.17,-542 209.17,-548 209.17,-548 209.17,-560 209.17,-560 209.17,-566 203.17,-572 197.17,-572"/>
<text text-anchor="middle" x="156.67" y="-551.2" font-family="Helvetica,sans-Serif" font-size="11.00">improve_service</text>
</g>
<!-- tsuki_core_rust::application::improve_service&#45;&gt;tsuki_core_rust::application::history_service -->
<g id="edge20" class="edge">
<title>tsuki_core_rust::application::improve_service&#45;&gt;tsuki_core_rust::application::history_service</title>
<path fill="none" stroke="#7f8c8d" stroke-dasharray="5,2" d="M104.01,-560.32C78.2,-566.39 49.36,-578.26 33.67,-601.5 -7.62,-662.64 -7.62,-706.36 33.67,-767.5 48.62,-789.64 75.6,-801.25 100.48,-807.34"/>
<polygon fill="#7f8c8d" stroke="#7f8c8d" points="100.07,-809.76 107.44,-808.91 101.15,-804.98 100.07,-809.76"/>
</g>
<!-- tsuki_core_rust::application::improve_service&#45;&gt;tsuki_core_rust::application::improve_approval_service -->
<g id="edge21" class="edge">
<title>tsuki_core_rust::application::improve_service&#45;&gt;tsuki_core_rust::application::improve_approval_service</title>
<path fill="none" stroke="#7f8c8d" stroke-dasharray="5,2" d="M104.01,-560.32C78.2,-566.39 49.36,-578.26 33.67,-601.5 24.72,-614.76 24.72,-624.24 33.67,-637.5 42.7,-650.87 56.12,-660.4 70.82,-667.2"/>
<polygon fill="#7f8c8d" stroke="#7f8c8d" points="70.25,-669.62 77.65,-670.13 72.18,-665.12 70.25,-669.62"/>
</g>
<!-- tsuki_core_rust::application::improve_service&#45;&gt;tsuki_core_rust::application::module_bootstrap -->
<g id="edge22" class="edge">
<title>tsuki_core_rust::application::improve_service&#45;&gt;tsuki_core_rust::application::module_bootstrap</title>
<path fill="none" stroke="#7f8c8d" stroke-dasharray="5,2" d="M104.01,-560.32C78.2,-566.39 49.36,-578.26 33.67,-601.5 8.55,-638.7 8.55,-665.3 33.67,-702.5 47.04,-722.3 70.04,-733.69 92.56,-740.22"/>
<polygon fill="#7f8c8d" stroke="#7f8c8d" points="92.13,-742.64 99.53,-742.1 93.41,-737.91 92.13,-742.64"/>
</g>
<!-- tsuki_core_rust::application::improve_service&#45;&gt;tsuki_core_rust::application::usage_service -->
<g id="edge23" class="edge">
<title>tsuki_core_rust::application::improve_service&#45;&gt;tsuki_core_rust::application::usage_service</title>
<path fill="none" stroke="#7f8c8d" stroke-dasharray="5,2" d="M156.67,-572.03C156.67,-579.18 156.67,-586.34 156.67,-593.5"/>
<polygon fill="#7f8c8d" stroke="#7f8c8d" points="154.22,-593.65 156.67,-600.65 159.12,-593.65 154.22,-593.65"/>
</g>
<!-- tsuki_core_rust::application::improve_service&#45;&gt;tsuki_core_rust -->
<g id="edge19" class="edge">
<title>tsuki_core_rust::application::improve_service&#45;&gt;tsuki_core_rust</title>
<path fill="none" stroke="#7f8c8d" stroke-dasharray="5,2" d="M209.3,-537.01C237.45,-527.74 272.26,-516.29 300.82,-506.89"/>
<polygon fill="#7f8c8d" stroke="#7f8c8d" points="301.68,-509.18 307.56,-504.67 300.15,-504.53 301.68,-509.18"/>
</g>
<!-- tsuki_core_rust::application::module_bootstrap&#45;&gt;tsuki_core_rust -->
<g id="edge24" class="edge">
<title>tsuki_core_rust::application::module_bootstrap&#45;&gt;tsuki_core_rust</title>
<path fill="none" stroke="#7f8c8d" stroke-dasharray="5,2" d="M189.75,-730.87C207.4,-724.57 228.68,-716.58 243.67,-703 302.57,-649.65 333.82,-558.31 347.14,-513.88"/>
<polygon fill="#7f8c8d" stroke="#7f8c8d" points="349.49,-514.57 349.13,-507.16 344.8,-513.18 349.49,-514.57"/>
</g>
<!-- tsuki_core_rust::application::pipeline_service -->
<g id="node8" class="node">
<title>tsuki_core_rust::application::pipeline_service</title>
<path fill="#dcf5e4" stroke="#7a7a7a" d="M195.67,-247C195.67,-247 117.67,-247 117.67,-247 111.67,-247 105.67,-241 105.67,-235 105.67,-235 105.67,-223 105.67,-223 105.67,-217 111.67,-211 117.67,-211 117.67,-211 195.67,-211 195.67,-211 201.67,-211 207.67,-217 207.67,-223 207.67,-223 207.67,-235 207.67,-235 207.67,-241 201.67,-247 195.67,-247"/>
<text text-anchor="middle" x="156.67" y="-226.2" font-family="Helvetica,sans-Serif" font-size="11.00">pipeline_service</text>
</g>
<!-- tsuki_core_rust::application::pipeline_service&#45;&gt;tsuki_core_rust::application::debug_service -->
<g id="edge26" class="edge">
<title>tsuki_core_rust::application::pipeline_service&#45;&gt;tsuki_core_rust::application::debug_service</title>
<path fill="none" stroke="#7f8c8d" stroke-dasharray="5,2" d="M156.67,-247.03C156.67,-254.18 156.67,-261.34 156.67,-268.5"/>
<polygon fill="#7f8c8d" stroke="#7f8c8d" points="154.22,-268.65 156.67,-275.65 159.12,-268.65 154.22,-268.65"/>
</g>
<!-- tsuki_core_rust::application::pipeline_service&#45;&gt;tsuki_core_rust::application::execution_service -->
<g id="edge27" class="edge">
<title>tsuki_core_rust::application::pipeline_service&#45;&gt;tsuki_core_rust::application::execution_service</title>
<path fill="none" stroke="#7f8c8d" stroke-dasharray="5,2" d="M105.59,-234.96C79.39,-240.91 49.69,-252.79 33.67,-276.5 24.72,-289.76 24.72,-299.24 33.67,-312.5 47.16,-332.47 70.44,-343.88 93.15,-350.39"/>
<polygon fill="#7f8c8d" stroke="#7f8c8d" points="92.77,-352.83 100.16,-352.26 94.03,-348.09 92.77,-352.83"/>
</g>
<!-- tsuki_core_rust::application::pipeline_service&#45;&gt;tsuki_core_rust::application::module_bootstrap -->
<g id="edge28" class="edge">
<title>tsuki_core_rust::application::pipeline_service&#45;&gt;tsuki_core_rust::application::module_bootstrap</title>
<path fill="none" stroke="#7f8c8d" stroke-dasharray="5,2" d="M105.59,-234.96C79.39,-240.91 49.69,-252.79 33.67,-276.5 7.18,-315.73 7.18,-663.27 33.67,-702.5 47.04,-722.3 70.04,-733.69 92.56,-740.22"/>
<polygon fill="#7f8c8d" stroke="#7f8c8d" points="92.13,-742.64 99.53,-742.1 93.41,-737.91 92.13,-742.64"/>
</g>
<!-- tsuki_core_rust::application::pipeline_service&#45;&gt;tsuki_core_rust::application::router_service -->
<g id="edge29" class="edge">
<title>tsuki_core_rust::application::pipeline_service&#45;&gt;tsuki_core_rust::application::router_service</title>
<path fill="none" stroke="#7f8c8d" stroke-dasharray="5,2" d="M105.59,-234.96C79.39,-240.91 49.69,-252.79 33.67,-276.5 8.55,-313.7 8.55,-340.3 33.67,-377.5 49.09,-400.33 77.29,-411.97 102.81,-417.89"/>
<polygon fill="#7f8c8d" stroke="#7f8c8d" points="102.57,-420.35 109.92,-419.42 103.59,-415.55 102.57,-420.35"/>
</g>
<!-- tsuki_core_rust::application::pipeline_service&#45;&gt;tsuki_core_rust -->
<g id="edge25" class="edge">
<title>tsuki_core_rust::application::pipeline_service&#45;&gt;tsuki_core_rust</title>
<path fill="none" stroke="#7f8c8d" stroke-dasharray="5,2" d="M208.09,-241.23C220.78,-246.11 233.64,-252.83 243.67,-262 305.82,-318.79 337.42,-417.85 349.37,-464.01"/>
<polygon fill="#7f8c8d" stroke="#7f8c8d" points="347.03,-464.76 351.12,-470.95 351.78,-463.56 347.03,-464.76"/>
</g>
<!-- tsuki_core_rust::application::router_service&#45;&gt;tsuki_core_rust::application::event_service -->
<g id="edge31" class="edge">
<title>tsuki_core_rust::application::router_service&#45;&gt;tsuki_core_rust::application::event_service</title>
<path fill="none" stroke="#7f8c8d" stroke-dasharray="5,2" d="M156.67,-442.03C156.67,-449.18 156.67,-456.34 156.67,-463.5"/>
<polygon fill="#7f8c8d" stroke="#7f8c8d" points="154.22,-463.65 156.67,-470.65 159.12,-463.65 154.22,-463.65"/>
</g>
<!-- tsuki_core_rust::application::router_service&#45;&gt;tsuki_core_rust::application::module_bootstrap -->
<g id="edge32" class="edge">
<title>tsuki_core_rust::application::router_service&#45;&gt;tsuki_core_rust::application::module_bootstrap</title>
<path fill="none" stroke="#7f8c8d" stroke-dasharray="5,2" d="M109.96,-429.01C82.76,-434.61 50.58,-446.46 33.67,-471.5 4.94,-514.04 4.94,-659.96 33.67,-702.5 47.04,-722.3 70.04,-733.69 92.56,-740.22"/>
<polygon fill="#7f8c8d" stroke="#7f8c8d" points="92.13,-742.64 99.53,-742.1 93.41,-737.91 92.13,-742.64"/>
</g>
<!-- tsuki_core_rust::application::router_service&#45;&gt;tsuki_core_rust::application::usage_service -->
<g id="edge33" class="edge">
<title>tsuki_core_rust::application::router_service&#45;&gt;tsuki_core_rust::application::usage_service</title>
<path fill="none" stroke="#7f8c8d" stroke-dasharray="5,2" d="M109.96,-429.01C82.76,-434.61 50.58,-446.46 33.67,-471.5 8.55,-508.7 8.55,-535.3 33.67,-572.5 49.09,-595.33 77.29,-606.97 102.81,-612.89"/>
<polygon fill="#7f8c8d" stroke="#7f8c8d" points="102.57,-615.35 109.92,-614.42 103.59,-610.55 102.57,-615.35"/>
</g>
<!-- tsuki_core_rust::application::router_service&#45;&gt;tsuki_core_rust -->
<g id="edge30" class="edge">
<title>tsuki_core_rust::application::router_service&#45;&gt;tsuki_core_rust</title>
<path fill="none" stroke="#7f8c8d" stroke-dasharray="5,2" d="M203.48,-439.08C232.51,-448.63 270.2,-461.03 300.75,-471.09"/>
<polygon fill="#7f8c8d" stroke="#7f8c8d" points="300.14,-473.47 307.55,-473.33 301.67,-468.81 300.14,-473.47"/>
</g>
<!-- tsuki_core_rust::application::scheduler_notice_service -->
<g id="node10" class="node">
<title>tsuki_core_rust::application::scheduler_notice_service</title>
<path fill="#dcf5e4" stroke="#7a7a7a" d="M220.67,-182C220.67,-182 92.67,-182 92.67,-182 86.67,-182 80.67,-176 80.67,-170 80.67,-170 80.67,-158 80.67,-158 80.67,-152 86.67,-146 92.67,-146 92.67,-146 220.67,-146 220.67,-146 226.67,-146 232.67,-152 232.67,-158 232.67,-158 232.67,-170 232.67,-170 232.67,-176 226.67,-182 220.67,-182"/>
<text text-anchor="middle" x="156.67" y="-161.2" font-family="Helvetica,sans-Serif" font-size="11.00">scheduler_notice_service</text>
</g>
<!-- tsuki_core_rust::application::scheduler_notice_service&#45;&gt;tsuki_core_rust::application::pipeline_service -->
<g id="edge35" class="edge">
<title>tsuki_core_rust::application::scheduler_notice_service&#45;&gt;tsuki_core_rust::application::pipeline_service</title>
<path fill="none" stroke="#7f8c8d" stroke-dasharray="5,2" d="M156.67,-182.03C156.67,-189.18 156.67,-196.34 156.67,-203.5"/>
<polygon fill="#7f8c8d" stroke="#7f8c8d" points="154.22,-203.65 156.67,-210.65 159.12,-203.65 154.22,-203.65"/>
</g>
<!-- tsuki_core_rust::application::scheduler_notice_service&#45;&gt;tsuki_core_rust -->
<g id="edge34" class="edge">
<title>tsuki_core_rust::application::scheduler_notice_service&#45;&gt;tsuki_core_rust</title>
<path fill="none" stroke="#7f8c8d" stroke-dasharray="5,2" d="M222.84,-182.03C230.49,-186.07 237.68,-191 243.67,-197 320.17,-273.63 345.16,-408.21 352.46,-463.84"/>
<polygon fill="#7f8c8d" stroke="#7f8c8d" points="350.03,-464.2 353.34,-470.84 354.9,-463.59 350.03,-464.2"/>
</g>
<!-- tsuki_core_rust::application::scheduler_service -->
<g id="node11" class="node">
<title>tsuki_core_rust::application::scheduler_service</title>
<path fill="#dcf5e4" stroke="#7a7a7a" d="M201.17,-117C201.17,-117 112.17,-117 112.17,-117 106.17,-117 100.17,-111 100.17,-105 100.17,-105 100.17,-93 100.17,-93 100.17,-87 106.17,-81 112.17,-81 112.17,-81 201.17,-81 201.17,-81 207.17,-81 213.17,-87 213.17,-93 213.17,-93 213.17,-105 213.17,-105 213.17,-111 207.17,-117 201.17,-117"/>
<text text-anchor="middle" x="156.67" y="-96.2" font-family="Helvetica,sans-Serif" font-size="11.00">scheduler_service</text>
</g>
<!-- tsuki_core_rust::application::scheduler_service&#45;&gt;tsuki_core_rust::application::event_service -->
<g id="edge37" class="edge">
<title>tsuki_core_rust::application::scheduler_service&#45;&gt;tsuki_core_rust::application::event_service</title>
<path fill="none" stroke="#7f8c8d" stroke-dasharray="5,2" d="M99.88,-106.34C75.18,-112.68 48.53,-124.49 33.67,-146.5 -3.14,-201.01 -3.14,-387.99 33.67,-442.5 49.39,-465.77 78.4,-477.42 104.3,-483.23"/>
<polygon fill="#7f8c8d" stroke="#7f8c8d" points="103.81,-485.63 111.16,-484.66 104.8,-480.83 103.81,-485.63"/>
</g>
<!-- tsuki_core_rust::application::scheduler_service&#45;&gt;tsuki_core_rust -->
<g id="edge36" class="edge">
<title>tsuki_core_rust::application::scheduler_service&#45;&gt;tsuki_core_rust</title>
<path fill="none" stroke="#7f8c8d" stroke-dasharray="5,2" d="M213.54,-112.05C224.69,-116.8 235.46,-123.25 243.67,-132 334.61,-228.92 351.41,-399.07 354.49,-463.4"/>
<polygon fill="#7f8c8d" stroke="#7f8c8d" points="352.05,-463.81 354.8,-470.7 356.95,-463.61 352.05,-463.81"/>
</g>
<!-- tsuki_core_rust::application::trigger_ingress_api -->
<g id="node12" class="node">
<title>tsuki_core_rust::application::trigger_ingress_api</title>
<path fill="#dcf5e4" stroke="#7a7a7a" d="M203.67,-52C203.67,-52 109.67,-52 109.67,-52 103.67,-52 97.67,-46 97.67,-40 97.67,-40 97.67,-28 97.67,-28 97.67,-22 103.67,-16 109.67,-16 109.67,-16 203.67,-16 203.67,-16 209.67,-16 215.67,-22 215.67,-28 215.67,-28 215.67,-40 215.67,-40 215.67,-46 209.67,-52 203.67,-52"/>
<text text-anchor="middle" x="156.67" y="-31.2" font-family="Helvetica,sans-Serif" font-size="11.00">trigger_ingress_api</text>
</g>
<!-- tsuki_core_rust::application::trigger_ingress_api&#45;&gt;tsuki_core_rust -->
<g id="edge38" class="edge">
<title>tsuki_core_rust::application::trigger_ingress_api&#45;&gt;tsuki_core_rust</title>
<path fill="none" stroke="#7f8c8d" stroke-dasharray="5,2" d="M216.06,-47.75C226.38,-52.43 236.2,-58.67 243.67,-67 349.39,-184.81 356.82,-391.33 355.97,-463.35"/>
<polygon fill="#7f8c8d" stroke="#7f8c8d" points="353.52,-463.64 355.85,-470.68 358.42,-463.72 353.52,-463.64"/>
</g>
<!-- tsuki_core_rust::application::usage_service&#45;&gt;tsuki_core_rust -->
<g id="edge39" class="edge">
<title>tsuki_core_rust::application::usage_service&#45;&gt;tsuki_core_rust</title>
<path fill="none" stroke="#7f8c8d" stroke-dasharray="5,2" d="M203.29,-605.52C216.76,-600.63 231.23,-594.44 243.67,-587 278.34,-566.28 312.35,-534.2 333.51,-512.44"/>
<polygon fill="#7f8c8d" stroke="#7f8c8d" points="335.52,-513.88 338.61,-507.14 331.99,-510.49 335.52,-513.88"/>
</g>
<!-- tsuki_core_rust&#45;&gt;tsuki_core_rust::application::event_service -->
<g id="edge1" class="edge">
<title>tsuki_core_rust&#45;&gt;tsuki_core_rust::application::event_service</title>
<path fill="none" stroke="#7f8c8d" stroke-dasharray="5,2" d="M307.43,-498.79C277.88,-500.65 239.92,-500.73 209.62,-499.04"/>
<polygon fill="#7f8c8d" stroke="#7f8c8d" points="209.63,-496.59 202.49,-498.6 209.32,-501.48 209.63,-496.59"/>
</g>
<!-- tsuki_core_rust&#45;&gt;tsuki_core_rust::application::module_bootstrap -->
<g id="edge2" class="edge">
<title>tsuki_core_rust&#45;&gt;tsuki_core_rust::application::module_bootstrap</title>
<path fill="none" stroke="#7f8c8d" stroke-dasharray="5,2" d="M352.68,-507.16C344.23,-552.99 313.23,-668.99 243.67,-732 236.9,-738.14 228.84,-743.13 220.42,-747.02"/>
<polygon fill="#7f8c8d" stroke="#7f8c8d" points="219.4,-744.78 213.92,-749.77 221.32,-749.29 219.4,-744.78"/>
</g>
</g>
</svg>
