<?xml version="1.0" encoding="UTF-8" standalone="no"?>
<!DOCTYPE svg PUBLIC "-//W3C//DTD SVG 1.1//EN"
 "http://www.w3.org/Graphics/SVG/1.1/DTD/svg11.dtd">
<!-- Generated by graphviz version 2.43.0 (0)
 -->
<!-- Title: %3 Pages: 1 -->
<svg width="444pt" height="995pt"
 viewBox="0.00 0.00 444.20 995.20" xmlns="http://www.w3.org/2000/svg" xmlns:xlink="http://www.w3.org/1999/xlink">
<g id="graph0" class="graph" transform="scale(1 1) rotate(0) translate(21.6 973.6)">
<title>%3</title>
<polygon fill="white" stroke="transparent" points="-21.6,21.6 -21.6,-973.6 422.6,-973.6 422.6,21.6 -21.6,21.6"/>
<text text-anchor="middle" x="200.5" y="-928.8" font-family="Helvetica,sans-Serif" font-size="24.00">core&#45;rust internal dependencies</text>
<g id="clust1" class="cluster">
<title>cluster_application</title>
<path fill="none" stroke="#d0d7de" d="M156.34,-8C156.34,-8 306.34,-8 306.34,-8 312.34,-8 318.34,-14 318.34,-20 318.34,-20 318.34,-862 318.34,-862 318.34,-868 312.34,-874 306.34,-874 306.34,-874 156.34,-874 156.34,-874 150.34,-874 144.34,-868 144.34,-862 144.34,-862 144.34,-20 144.34,-20 144.34,-14 150.34,-8 156.34,-8"/>
<text text-anchor="middle" x="231.34" y="-850.8" font-family="Helvetica,sans-Serif" font-size="24.00">Application</text>
</g>
<!-- tsuki_core_rust::application::debug_service -->
<g id="node1" class="node">
<title>tsuki_core_rust::application::debug_service</title>
<path fill="#dcf5e4" stroke="#7a7a7a" d="M265.84,-832C265.84,-832 196.84,-832 196.84,-832 190.84,-832 184.84,-826 184.84,-820 184.84,-820 184.84,-808 184.84,-808 184.84,-802 190.84,-796 196.84,-796 196.84,-796 265.84,-796 265.84,-796 271.84,-796 277.84,-802 277.84,-808 277.84,-808 277.84,-820 277.84,-820 277.84,-826 271.84,-832 265.84,-832"/>
<text text-anchor="middle" x="231.34" y="-811.2" font-family="Helvetica,sans-Serif" font-size="11.00">debug_service</text>
</g>
<!-- tsuki_core_rust::application::event_service -->
<g id="node2" class="node">
<title>tsuki_core_rust::application::event_service</title>
<path fill="#dcf5e4" stroke="#7a7a7a" d="M264.84,-767C264.84,-767 197.84,-767 197.84,-767 191.84,-767 185.84,-761 185.84,-755 185.84,-755 185.84,-743 185.84,-743 185.84,-737 191.84,-731 197.84,-731 197.84,-731 264.84,-731 264.84,-731 270.84,-731 276.84,-737 276.84,-743 276.84,-743 276.84,-755 276.84,-755 276.84,-761 270.84,-767 264.84,-767"/>
<text text-anchor="middle" x="231.34" y="-746.2" font-family="Helvetica,sans-Serif" font-size="11.00">event_service</text>
</g>
<!-- tsuki_core_rust::application::debug_service&#45;&gt;tsuki_core_rust::application::event_service -->
<g id="edge4" class="edge">
<title>tsuki_core_rust::application::debug_service&#45;&gt;tsuki_core_rust::application::event_service</title>
<path fill="none" stroke="#7f8c8d" stroke-dasharray="5,2" d="M231.34,-795.65C231.34,-788.5 231.34,-781.34 231.34,-774.18"/>
<polygon fill="#7f8c8d" stroke="#7f8c8d" points="233.79,-774.03 231.34,-767.03 228.89,-774.03 233.79,-774.03"/>
</g>
<!-- tsuki_core_rust::application::execution_service -->
<g id="node3" class="node">
<title>tsuki_core_rust::application::execution_service</title>
<path fill="#dcf5e4" stroke="#7a7a7a" d="M275.84,-702C275.84,-702 186.84,-702 186.84,-702 180.84,-702 174.84,-696 174.84,-690 174.84,-690 174.84,-678 174.84,-678 174.84,-672 180.84,-666 186.84,-666 186.84,-666 275.84,-666 275.84,-666 281.84,-666 287.84,-672 287.84,-678 287.84,-678 287.84,-690 287.84,-690 287.84,-696 281.84,-702 275.84,-702"/>
<text text-anchor="middle" x="231.34" y="-681.2" font-family="Helvetica,sans-Serif" font-size="11.00">execution_service</text>
</g>
<!-- tsuki_core_rust::application::debug_service&#45;&gt;tsuki_core_rust::application::execution_service -->
<g id="edge5" class="edge">
<title>tsuki_core_rust::application::debug_service&#45;&gt;tsuki_core_rust::application::execution_service</title>
<path fill="none" stroke="#7f8c8d" stroke-dasharray="5,2" d="M184.59,-809.42C157.38,-804.06 125.2,-792.47 108.34,-767.5 99.38,-754.24 99.38,-744.76 108.34,-731.5 121.8,-711.56 144.95,-699.98 167.56,-693.27"/>
<polygon fill="#7f8c8d" stroke="#7f8c8d" points="168.45,-695.56 174.55,-691.34 167.15,-690.84 168.45,-695.56"/>
</g>
<!-- tsuki_core_rust::application::history_service -->
<g id="node4" class="node">
<title>tsuki_core_rust::application::history_service</title>
<path fill="#dcf5e4" stroke="#7a7a7a" d="M268.34,-637C268.34,-637 194.34,-637 194.34,-637 188.34,-637 182.34,-631 182.34,-625 182.34,-625 182.34,-613 182.34,-613 182.34,-607 188.34,-601 194.34,-601 194.34,-601 268.34,-601 268.34,-601 274.34,-601 280.34,-607 280.34,-613 280.34,-613 280.34,-625 280.34,-625 280.34,-631 274.34,-637 268.34,-637"/>
<text text-anchor="middle" x="231.34" y="-616.2" font-family="Helvetica,sans-Serif" font-size="11.00">history_service</text>
</g>
<!-- tsuki_core_rust::application::debug_service&#45;&gt;tsuki_core_rust::application::history_service -->
<g id="edge6" class="edge">
<title>tsuki_core_rust::application::debug_service&#45;&gt;tsuki_core_rust::application::history_service</title>
<path fill="none" stroke="#7f8c8d" stroke-dasharray="5,2" d="M184.59,-809.42C157.38,-804.06 125.2,-792.47 108.34,-767.5 83.21,-730.3 83.21,-703.7 108.34,-666.5 123.32,-644.3 150.3,-632.48 175.18,-626.17"/>
<polygon fill="#7f8c8d" stroke="#7f8c8d" points="175.88,-628.53 182.13,-624.54 174.76,-623.76 175.88,-628.53"/>
</g>
<!-- tsuki_core_rust::application::module_bootstrap -->
<g id="node7" class="node">
<title>tsuki_core_rust::application::module_bootstrap</title>
<path fill="#dcf5e4" stroke="#7a7a7a" d="M276.34,-442C276.34,-442 186.34,-442 186.34,-442 180.34,-442 174.34,-436 174.34,-430 174.34,-430 174.34,-418 174.34,-418 174.34,-412 180.34,-406 186.34,-406 186.34,-406 276.34,-406 276.34,-406 282.34,-406 288.34,-412 288.34,-418 288.34,-418 288.34,-430 288.34,-430 288.34,-436 282.34,-442 276.34,-442"/>
<text text-anchor="middle" x="231.34" y="-421.2" font-family="Helvetica,sans-Serif" font-size="11.00">module_bootstrap</text>
</g>
<!-- tsuki_core_rust::application::debug_service&#45;&gt;tsuki_core_rust::application::module_bootstrap -->
<g id="edge7" class="edge">
<title>tsuki_core_rust::application::debug_service&#45;&gt;tsuki_core_rust::application::module_bootstrap</title>
<path fill="none" stroke="#7f8c8d" stroke-dasharray="5,2" d="M184.59,-809.42C157.38,-804.06 125.2,-792.47 108.34,-767.5 71.52,-712.99 71.52,-526.01 108.34,-471.5 121.75,-451.64 144.75,-440.08 167.27,-433.35"/>
<polygon fill="#7f8c8d" stroke="#7f8c8d" points="168.14,-435.66 174.23,-431.42 166.83,-430.93 168.14,-435.66"/>
</g>
<!-- tsuki_core_rust::application::router_service -->
<g id="node9" class="node">
<title>tsuki_core_rust::application::router_service</title>
<path fill="#dcf5e4" stroke="#7a7a7a" d="M265.84,-312C265.84,-312 196.84,-312 196.84,-312 190.84,-312 184.84,-306 184.84,-300 184.84,-300 184.84,-288 184.84,-288 184.84,-282 190.84,-276 196.84,-276 196.84,-276 265.84,-276 265.84,-276 271.84,-276 277.84,-282 277.84,-288 277.84,-288 277.84,-300 277.84,-300 277.84,-306 271.84,-312 265.84,-312"/>
<text text-anchor="middle" x="231.34" y="-291.2" font-family="Helvetica,sans-Serif" font-size="11.00">router_service</text>
</g>
<!-- tsuki_core_rust::application::debug_service&#45;&gt;tsuki_core_rust::application::router_service -->
<g id="edge8" class="edge">
<title>tsuki_core_rust::application::debug_service&#45;&gt;tsuki_core_rust::application::router_service</title>
<path fill="none" stroke="#7f8c8d" stroke-dasharray="5,2" d="M184.59,-809.42C157.38,-804.06 125.2,-792.47 108.34,-767.5 81.85,-728.27 81.85,-380.73 108.34,-341.5 123.79,-318.61 152,-306.75 177.51,-300.6"/>
<polygon fill="#7f8c8d" stroke="#7f8c8d" points="178.32,-302.93 184.62,-299.01 177.25,-298.15 178.32,-302.93"/>
</g>
<!-- tsuki_core_rust -->
<g id="node14" class="node">
<title>tsuki_core_rust</title>
<path fill="#7a7a7a" stroke="#7a7a7a" d="M267.84,-918C267.84,-918 194.84,-918 194.84,-918 188.84,-918 182.84,-912 182.84,-906 182.84,-906 182.84,-894 182.84,-894 182.84,-888 188.84,-882 194.84,-882 194.84,-882 267.84,-882 267.84,-882 273.84,-882 279.84,-888 279.84,-894 279.84,-894 279.84,-906 279.84,-906 279.84,-912 273.84,-918 267.84,-918"/>
<text text-anchor="middle" x="231.34" y="-897.2" font-family="Helvetica,sans-Serif" font-size="11.00">tsuki_core_rust</text>
</g>
<!-- tsuki_core_rust::application::debug_service&#45;&gt;tsuki_core_rust -->
<g id="edge3" class="edge">
<title>tsuki_core_rust::application::debug_service&#45;&gt;tsuki_core_rust</title>
<path fill="none" stroke="#7f8c8d" stroke-dasharray="5,2" d="M231.34,-832.14C231.34,-846.42 231.34,-860.69 231.34,-874.97"/>
<polygon fill="#7f8c8d" stroke="#7f8c8d" points="228.89,-874.97 231.34,-881.97 233.79,-874.97 228.89,-874.97"/>
</g>
<!-- tsuki_core_rust::application::event_service&#45;&gt;tsuki_core_rust -->
<g id="edge9" class="edge">
<title>tsuki_core_rust::application::event_service&#45;&gt;tsuki_core_rust</title>
<path fill="none" stroke="#7f8c8d" stroke-dasharray="5,2" d="M185.55,-753.82C158.15,-759.34 125.44,-771.17 108.34,-796.5 91.67,-821.18 91.67,-838.82 108.34,-863.5 123.09,-885.35 150.5,-894.8 175.7,-898.64"/>
<polygon fill="#7f8c8d" stroke="#7f8c8d" points="175.48,-901.08 182.74,-899.58 176.13,-896.23 175.48,-901.08"/>
</g>
<!-- tsuki_core_rust::application::execution_service&#45;&gt;tsuki_core_rust::application::event_service -->
<g id="edge11" class="edge">
<title>tsuki_core_rust::application::execution_service&#45;&gt;tsuki_core_rust::application::event_service</title>
<path fill="none" stroke="#7f8c8d" stroke-dasharray="5,2" d="M231.34,-702.03C231.34,-709.18 231.34,-716.34 231.34,-723.5"/>
<polygon fill="#7f8c8d" stroke="#7f8c8d" points="228.89,-723.65 231.34,-730.65 233.79,-723.65 228.89,-723.65"/>
</g>
<!-- tsuki_core_rust::application::execution_service&#45;&gt;tsuki_core_rust::application::history_service -->
<g id="edge12" class="edge">
<title>tsuki_core_rust::application::execution_service&#45;&gt;tsuki_core_rust::application::history_service</title>
<path fill="none" stroke="#7f8c8d" stroke-dasharray="5,2" d="M231.34,-665.65C231.34,-658.5 231.34,-651.34 231.34,-644.18"/>
<polygon fill="#7f8c8d" stroke="#7f8c8d" points="233.79,-644.03 231.34,-637.03 228.89,-644.03 233.79,-644.03"/>
</g>
<!-- tsuki_core_rust::application::execution_service&#45;&gt;tsuki_core_rust::application::module_bootstrap -->
<g id="edge13" class="edge">
<title>tsuki_core_rust::application::execution_service&#45;&gt;tsuki_core_rust::application::module_bootstrap</title>
<path fill="none" stroke="#7f8c8d" stroke-dasharray="5,2" d="M174.83,-677.26C150.03,-671.15 123.22,-659.54 108.34,-637.5 67.05,-576.36 67.05,-532.64 108.34,-471.5 121.75,-451.64 144.75,-440.08 167.27,-433.35"/>
<polygon fill="#7f8c8d" stroke="#7f8c8d" points="168.14,-435.66 174.23,-431.42 166.83,-430.93 168.14,-435.66"/>
</g>
<!-- tsuki_core_rust::application::execution_service&#45;&gt;tsuki_core_rust::application::router_service -->
<g id="edge14" class="edge">
<title>tsuki_core_rust::application::execution_service&#45;&gt;tsuki_core_rust::application::router_service</title>
<path fill="none" stroke="#7f8c8d" stroke-dasharray="5,2" d="M174.83,-677.26C150.03,-671.15 123.22,-659.54 108.34,-637.5 71.52,-582.99 71.52,-396.01 108.34,-341.5 123.79,-318.61 152,-306.75 177.51,-300.6"/>
<polygon fill="#7f8c8d" stroke="#7f8c8d" points="178.32,-302.93 184.62,-299.01 177.25,-298.15 178.32,-302.93"/>
</g>
<!-- tsuki_core_rust::application::usage_service -->
<g id="node13" class="node">
<title>tsuki_core_rust::application::usage_service</title>
<path fill="#dcf5e4" stroke="#7a7a7a" d="M265.84,-52C265.84,-52 196.84,-52 196.84,-52 190.84,-52 184.84,-46 184.84,-40 184.84,-40 184.84,-28 184.84,-28 184.84,-22 190.84,-16 196.84,-16 196.84,-16 265.84,-16 265.84,-16 271.84,-16 277.84,-22 277.84,-28 277.84,-28 277.84,-40 277.84,-40 277.84,-46 271.84,-52 265.84,-52"/>
<text text-anchor="middle" x="231.34" y="-31.2" font-family="Helvetica,sans-Serif" font-size="11.00">usage_service</text>
</g>
<!-- tsuki_core_rust::application::execution_service&#45;&gt;tsuki_core_rust::application::usage_service -->
<g id="edge15" class="edge">
<title>tsuki_core_rust::application::execution_service&#45;&gt;tsuki_core_rust::application::usage_service</title>
<path fill="none" stroke="#7f8c8d" stroke-dasharray="5,2" d="M174.83,-677.26C150.03,-671.15 123.22,-659.54 108.34,-637.5 73.76,-586.3 73.76,-132.7 108.34,-81.5 123.79,-58.61 152,-46.75 177.51,-40.6"/>
<polygon fill="#7f8c8d" stroke="#7f8c8d" points="178.32,-42.93 184.62,-39.01 177.25,-38.15 178.32,-42.93"/>
</g>
<!-- tsuki_core_rust::application::execution_service&#45;&gt;tsuki_core_rust -->
<g id="edge10" class="edge">
<title>tsuki_core_rust::application::execution_service&#45;&gt;tsuki_core_rust</title>
<path fill="none" stroke="#7f8c8d" stroke-dasharray="5,2" d="M174.55,-691.34C149.84,-697.68 123.2,-709.49 108.34,-731.5 75.5,-780.12 75.5,-814.88 108.34,-863.5 123.09,-885.35 150.5,-894.8 175.7,-898.64"/>
<polygon fill="#7f8c8d" stroke="#7f8c8d" points="175.48,-901.08 182.74,-899.58 176.13,-896.23 175.48,-901.08"/>
</g>
<!-- tsuki_core_rust::application::history_service&#45;&gt;tsuki_core_rust -->
<g id="edge16" class="edge">
<title>tsuki_core_rust::application::history_service&#45;&gt;tsuki_core_rust</title>
<path fill="none" stroke="#7f8c8d" stroke-dasharray="5,2" d="M182.13,-624.54C155.48,-630.34 124.73,-642.22 108.34,-666.5 83.84,-702.78 83.84,-827.22 108.34,-863.5 123.09,-885.35 150.5,-894.8 175.7,-898.64"/>
<polygon fill="#7f8c8d" stroke="#7f8c8d" points="175.48,-901.08 182.74,-899.58 176.13,-896.23 175.48,-901.08"/>
</g>
<!-- tsuki_core_rust::application::improve_approval_service -->
<g id="node5" class="node">
<title>tsuki_core_rust::application::improve_approval_service</title>
<path fill="#dcf5e4" stroke="#7a7a7a" d="M298.34,-572C298.34,-572 164.34,-572 164.34,-572 158.34,-572 152.34,-566 152.34,-560 152.34,-560 152.34,-548 152.34,-548 152.34,-542 158.34,-536 164.34,-536 164.34,-536 298.34,-536 298.34,-536 304.34,-536 310.34,-542 310.34,-548 310.34,-548 310.34,-560 310.34,-560 310.34,-566 304.34,-572 298.34,-572"/>
<text text-anchor="middle" x="231.34" y="-551.2" font-family="Helvetica,sans-Serif" font-size="11.00">improve_approval_service</text>
</g>
<!-- tsuki_core_rust::application::improve_approval_service&#45;&gt;tsuki_core_rust::application::event_service -->
<g id="edge18" class="edge">
<title>tsuki_core_rust::application::improve_approval_service&#45;&gt;tsuki_core_rust::application::event_service</title>
<path fill="none" stroke="#7f8c8d" stroke-dasharray="5,2" d="M152.03,-568.7C134.84,-575.74 118.71,-586.13 108.34,-601.5 83.21,-638.7 83.21,-665.3 108.34,-702.5 124.05,-725.77 153.06,-737.42 178.96,-743.23"/>
<polygon fill="#7f8c8d" stroke="#7f8c8d" points="178.47,-745.63 185.82,-744.66 179.47,-740.83 178.47,-745.63"/>
</g>
<!-- tsuki_core_rust::application::improve_approval_service&#45;&gt;tsuki_core_rust::application::module_bootstrap -->
<g id="edge19" class="edge">
<title>tsuki_core_rust::application::improve_approval_service&#45;&gt;tsuki_core_rust::application::module_bootstrap</title>
<path fill="none" stroke="#7f8c8d" stroke-dasharray="5,2" d="M152.31,-540.13C135,-533.23 118.75,-522.92 108.34,-507.5 99.38,-494.24 99.38,-484.76 108.34,-471.5 121.75,-451.64 144.75,-440.08 167.27,-433.35"/>
<polygon fill="#7f8c8d" stroke="#7f8c8d" points="168.14,-435.66 174.23,-431.42 166.83,-430.93 168.14,-435.66"/>
</g>
<!-- tsuki_core_rust::application::improve_approval_service&#45;&gt;tsuki_core_rust -->
<g id="edge17" class="edge">
<title>tsuki_core_rust::application::improve_approval_service&#45;&gt;tsuki_core_rust</title>
<path fill="none" stroke="#7f8c8d" stroke-dasharray="5,2" d="M152.03,-568.7C134.84,-575.74 118.71,-586.13 108.34,-601.5 75.75,-649.75 75.75,-815.25 108.34,-863.5 123.09,-885.35 150.5,-894.8 175.7,-898.64"/>
<polygon fill="#7f8c8d" stroke="#7f8c8d" points="175.48,-901.08 182.74,-899.58 176.13,-896.23 175.48,-901.08"/>
</g>
<!-- tsuki_core_rust::application::improve_service -->
<g id="node6" class="node">
<title>tsuki_core_rust::application::improve_service</title>
<path fill="#dcf5e4" stroke="#7a7a7a" d="M271.84,-507C271.84,-507 190.84,-507 190.84,-507 184.84,-507 178.84,-501 178.84,-495 178.84,-495 178.84,-483 178.84,-483 178.84,-477 184.84,-471 190.84,-471 190.84,-471 271.84,-471 271.84,-471 277.84,-471 283.84,-477 283.84,-483 283.84,-483 283.84,-495 283.84,-495 283.84,-501 277.84,-507 271.84,-507"/>
<text text-anchor="middle" x="231.34" y="-486.2" font-family="Helvetica,sans-Serif" font-size="11.00">improve_service</text>
</g>
<!-- tsuki_core_rust::application::improve_service&#45;&gt;tsuki_core_rust::application::event_service -->
<g id="edge21" class="edge">
<title>tsuki_core_rust::application::improve_service&#45;&gt;tsuki_core_rust::application::event_service</title>
<path fill="none" stroke="#7f8c8d" stroke-dasharray="5,2" d="M178.68,-495.32C152.87,-501.39 124.03,-513.26 108.34,-536.5 67.05,-597.64 67.05,-641.36 108.34,-702.5 124.05,-725.77 153.06,-737.42 178.96,-743.23"/>
<polygon fill="#7f8c8d" stroke="#7f8c8d" points="178.47,-745.63 185.82,-744.66 179.47,-740.83 178.47,-745.63"/>
</g>
<!-- tsuki_core_rust::application::improve_service&#45;&gt;tsuki_core_rust::application::history_service -->
<g id="edge22" class="edge">
<title>tsuki_core_rust::application::improve_service&#45;&gt;tsuki_core_rust::application::history_service</title>
<path fill="none" stroke="#7f8c8d" stroke-dasharray="5,2" d="M178.68,-495.32C152.87,-501.39 124.03,-513.26 108.34,-536.5 99.38,-549.76 99.38,-559.24 108.34,-572.5 123.28,-594.64 150.26,-606.25 175.15,-612.34"/>
<polygon fill="#7f8c8d" stroke="#7f8c8d" points="174.73,-614.76 182.1,-613.91 175.81,-609.98 174.73,-614.76"/>
</g>
<!-- tsuki_core_rust::application::improve_service&#45;&gt;tsuki_core_rust::application::improve_approval_service -->
<g id="edge23" class="edge">
<title>tsuki_core_rust::application::improve_service&#45;&gt;tsuki_core_rust::application::improve_approval_service</title>
<path fill="none" stroke="#7f8c8d" stroke-dasharray="5,2" d="M231.34,-507.03C231.34,-514.18 231.34,-521.34 231.34,-528.5"/>
<polygon fill="#7f8c8d" stroke="#7f8c8d" points="228.89,-528.65 231.34,-535.65 233.79,-528.65 228.89,-528.65"/>
</g>
<!-- tsuki_core_rust::application::improve_service&#45;&gt;tsuki_core_rust::application::module_bootstrap -->
<g id="edge24" class="edge">
<title>tsuki_core_rust::application::improve_service&#45;&gt;tsuki_core_rust::application::module_bootstrap</title>
<path fill="none" stroke="#7f8c8d" stroke-dasharray="5,2" d="M231.34,-470.65C231.34,-463.5 231.34,-456.34 231.34,-449.18"/>
<polygon fill="#7f8c8d" stroke="#7f8c8d" points="233.79,-449.03 231.34,-442.03 228.89,-449.03 233.79,-449.03"/>
</g>
<!-- tsuki_core_rust::application::improve_service&#45;&gt;tsuki_core_rust::application::usage_service -->
<g id="edge25" class="edge">
<title>tsuki_core_rust::application::improve_service&#45;&gt;tsuki_core_rust::application::usage_service</title>
<path fill="none" stroke="#7f8c8d" stroke-dasharray="5,2" d="M178.64,-483.16C152.82,-477.32 123.99,-465.68 108.34,-442.5 63.44,-376.02 63.44,-147.98 108.34,-81.5 123.79,-58.61 152,-46.75 177.51,-40.6"/>
<polygon fill="#7f8c8d" stroke="#7f8c8d" points="178.32,-42.93 184.62,-39.01 177.25,-38.15 178.32,-42.93"/>
</g>
<!-- tsuki_core_rust::application::improve_service&#45;&gt;tsuki_core_rust -->
<g id="edge20" class="edge">
<title>tsuki_core_rust::application::improve_service&#45;&gt;tsuki_core_rust</title>
<path fill="none" stroke="#7f8c8d" stroke-dasharray="5,2" d="M178.68,-495.32C152.87,-501.39 124.03,-513.26 108.34,-536.5 67.67,-596.72 67.67,-803.28 108.34,-863.5 123.09,-885.35 150.5,-894.8 175.7,-898.64"/>
<polygon fill="#7f8c8d" stroke="#7f8c8d" points="175.48,-901.08 182.74,-899.58 176.13,-896.23 175.48,-901.08"/>
</g>
<!-- tsuki_core_rust::application::module_bootstrap&#45;&gt;tsuki_core_rust -->
<g id="edge26" class="edge">
<title>tsuki_core_rust::application::module_bootstrap&#45;&gt;tsuki_core_rust</title>
<path fill="none" stroke="#7f8c8d" stroke-dasharray="5,2" d="M174.23,-431.42C149.61,-437.78 123.13,-449.59 108.34,-471.5 83.96,-507.6 83.96,-827.4 108.34,-863.5 123.09,-885.35 150.5,-894.8 175.7,-898.64"/>
<polygon fill="#7f8c8d" stroke="#7f8c8d" points="175.48,-901.08 182.74,-899.58 176.13,-896.23 175.48,-901.08"/>
</g>
<!-- tsuki_core_rust::application::pipeline_service -->
<g id="node8" class="node">
<title>tsuki_core_rust::application::pipeline_service</title>
<path fill="#dcf5e4" stroke="#7a7a7a" d="M270.34,-377C270.34,-377 192.34,-377 192.34,-377 186.34,-377 180.34,-371 180.34,-365 180.34,-365 180.34,-353 180.34,-353 180.34,-347 186.34,-341 192.34,-341 192.34,-341 270.34,-341 270.34,-341 276.34,-341 282.34,-347 282.34,-353 282.34,-353 282.34,-365 282.34,-365 282.34,-371 276.34,-377 270.34,-377"/>
<text text-anchor="middle" x="231.34" y="-356.2" font-family="Helvetica,sans-Serif" font-size="11.00">pipeline_service</text>
</g>
<!-- tsuki_core_rust::application::pipeline_service&#45;&gt;tsuki_core_rust::application::debug_service -->
<g id="edge28" class="edge">
<title>tsuki_core_rust::application::pipeline_service&#45;&gt;tsuki_core_rust::application::debug_service</title>
<path fill="none" stroke="#7f8c8d" stroke-dasharray="5,2" d="M180.25,-364.96C154.05,-370.91 124.35,-382.79 108.34,-406.5 63.44,-472.98 63.44,-701.02 108.34,-767.5 123.75,-790.33 151.96,-801.97 177.47,-807.89"/>
<polygon fill="#7f8c8d" stroke="#7f8c8d" points="177.23,-810.35 184.59,-809.42 178.26,-805.55 177.23,-810.35"/>
</g>
<!-- tsuki_core_rust::application::pipeline_service&#45;&gt;tsuki_core_rust::application::execution_service -->
<g id="edge29" class="edge">
<title>tsuki_core_rust::application::pipeline_service&#45;&gt;tsuki_core_rust::application::execution_service</title>
<path fill="none" stroke="#7f8c8d" stroke-dasharray="5,2" d="M180.25,-364.96C154.05,-370.91 124.35,-382.79 108.34,-406.5 79.61,-449.04 79.61,-594.96 108.34,-637.5 121.82,-657.47 145.11,-668.88 167.81,-675.39"/>
<polygon fill="#7f8c8d" stroke="#7f8c8d" points="167.43,-677.83 174.83,-677.26 168.69,-673.09 167.43,-677.83"/>
</g>
<!-- tsuki_core_rust::application::pipeline_service&#45;&gt;tsuki_core_rust::application::module_bootstrap -->
<g id="edge30" class="edge">
<title>tsuki_core_rust::application::pipeline_service&#45;&gt;tsuki_core_rust::application::module_bootstrap</title>
<path fill="none" stroke="#7f8c8d" stroke-dasharray="5,2" d="M231.34,-377.03C231.34,-384.18 231.34,-391.34 231.34,-398.5"/>
<polygon fill="#7f8c8d" stroke="#7f8c8d" points="228.89,-398.65 231.34,-405.65 233.79,-398.65 228.89,-398.65"/>
</g>
<!-- tsuki_core_rust::application::pipeline_service&#45;&gt;tsuki_core_rust::application::router_service -->
<g id="edge31" class="edge">
<title>tsuki_core_rust::application::pipeline_service&#45;&gt;tsuki_core_rust::application::router_service</title>
<path fill="none" stroke="#7f8c8d" stroke-dasharray="5,2" d="M231.34,-340.65C231.34,-333.5 231.34,-326.34 231.34,-319.18"/>
<polygon fill="#7f8c8d" stroke="#7f8c8d" points="233.79,-319.03 231.34,-312.03 228.89,-319.03 233.79,-319.03"/>
</g>
<!-- tsuki_core_rust::application::pipeline_service&#45;&gt;tsuki_core_rust -->
<g id="edge27" class="edge">
<title>tsuki_core_rust::application::pipeline_service&#45;&gt;tsuki_core_rust</title>
<path fill="none" stroke="#7f8c8d" stroke-dasharray="5,2" d="M180.25,-364.96C154.05,-370.91 124.35,-382.79 108.34,-406.5 79.92,-448.58 79.92,-821.42 108.34,-863.5 123.09,-885.35 150.5,-894.8 175.7,-898.64"/>
<polygon fill="#7f8c8d" stroke="#7f8c8d" points="175.48,-901.08 182.74,-899.58 176.13,-896.23 175.48,-901.08"/>
</g>
<!-- tsuki_core_rust::application::router_service&#45;&gt;tsuki_core_rust::application::event_service -->
<g id="edge33" class="edge">
<title>tsuki_core_rust::application::router_service&#45;&gt;tsuki_core_rust::application::event_service</title>
<path fill="none" stroke="#7f8c8d" stroke-dasharray="5,2" d="M184.62,-299.01C157.42,-304.61 125.25,-316.46 108.34,-341.5 63.44,-407.98 63.44,-636.02 108.34,-702.5 124.05,-725.77 153.06,-737.42 178.96,-743.23"/>
<polygon fill="#7f8c8d" stroke="#7f8c8d" points="178.47,-745.63 185.82,-744.66 179.47,-740.83 178.47,-745.63"/>
</g>
<!-- tsuki_core_rust::application::router_service&#45;&gt;tsuki_core_rust::application::module_bootstrap -->
<g id="edge34" class="edge">
<title>tsuki_core_rust::application::router_service&#45;&gt;tsuki_core_rust::application::module_bootstrap</title>
<path fill="none" stroke="#7f8c8d" stroke-dasharray="5,2" d="M184.62,-299.01C157.42,-304.61 125.25,-316.46 108.34,-341.5 99.38,-354.76 99.38,-364.24 108.34,-377.5 121.71,-397.3 144.71,-408.69 167.23,-415.22"/>
<polygon fill="#7f8c8d" stroke="#7f8c8d" points="166.79,-417.64 174.19,-417.1 168.07,-412.91 166.79,-417.64"/>
</g>
<!-- tsuki_core_rust::application::router_service&#45;&gt;tsuki_core_rust::application::usage_service -->
<g id="edge35" class="edge">
<title>tsuki_core_rust::application::router_service&#45;&gt;tsuki_core_rust::application::usage_service</title>
<path fill="none" stroke="#7f8c8d" stroke-dasharray="5,2" d="M184.59,-289.42C157.38,-284.06 125.2,-272.47 108.34,-247.5 67.05,-186.36 67.05,-142.64 108.34,-81.5 123.79,-58.61 152,-46.75 177.51,-40.6"/>
<polygon fill="#7f8c8d" stroke="#7f8c8d" points="178.32,-42.93 184.62,-39.01 177.25,-38.15 178.32,-42.93"/>
</g>
<!-- tsuki_core_rust::application::router_service&#45;&gt;tsuki_core_rust -->
<g id="edge32" class="edge">
<title>tsuki_core_rust::application::router_service&#45;&gt;tsuki_core_rust</title>
<path fill="none" stroke="#7f8c8d" stroke-dasharray="5,2" d="M184.62,-299.01C157.42,-304.61 125.25,-316.46 108.34,-341.5 75.88,-389.57 75.88,-815.43 108.34,-863.5 123.09,-885.35 150.5,-894.8 175.7,-898.64"/>
<polygon fill="#7f8c8d" stroke="#7f8c8d" points="175.48,-901.08 182.74,-899.58 176.13,-896.23 175.48,-901.08"/>
</g>
<!-- tsuki_core_rust::application::scheduler_notice_service -->
<g id="node10" class="node">
<title>tsuki_core_rust::application::scheduler_notice_service</title>
<path fill="#dcf5e4" stroke="#7a7a7a" d="M295.34,-247C295.34,-247 167.34,-247 167.34,-247 161.34,-247 155.34,-241 155.34,-235 155.34,-235 155.34,-223 155.34,-223 155.34,-217 161.34,-211 167.34,-211 167.34,-211 295.34,-211 295.34,-211 301.34,-211 307.34,-217 307.34,-223 307.34,-223 307.34,-235 307.34,-235 307.34,-241 301.34,-247 295.34,-247"/>
<text text-anchor="middle" x="231.34" y="-226.2" font-family="Helvetica,sans-Serif" font-size="11.00">scheduler_notice_service</text>
</g>
<!-- tsuki_core_rust::application::scheduler_notice_service&#45;&gt;tsuki_core_rust::application::pipeline_service -->
<g id="edge37" class="edge">
<title>tsuki_core_rust::application::scheduler_notice_service&#45;&gt;tsuki_core_rust::application::pipeline_service</title>
<path fill="none" stroke="#7f8c8d" stroke-dasharray="5,2" d="M155.23,-242.44C136.85,-249.47 119.35,-260.19 108.34,-276.5 99.38,-289.76 99.38,-299.24 108.34,-312.5 122.93,-334.12 149,-345.7 173.4,-351.9"/>
<polygon fill="#7f8c8d" stroke="#7f8c8d" points="172.84,-354.29 180.22,-353.51 173.97,-349.52 172.84,-354.29"/>
</g>
<!-- tsuki_core_rust::application::scheduler_notice_service&#45;&gt;tsuki_core_rust -->
<g id="edge36" class="edge">
<title>tsuki_core_rust::application::scheduler_notice_service&#45;&gt;tsuki_core_rust</title>
<path fill="none" stroke="#7f8c8d" stroke-dasharray="5,2" d="M155.23,-242.44C136.85,-249.47 119.35,-260.19 108.34,-276.5 71.83,-330.55 71.83,-809.45 108.34,-863.5 123.09,-885.35 150.5,-894.8 175.7,-898.64"/>
<polygon fill="#7f8c8d" stroke="#7f8c8d" points="175.48,-901.08 182.74,-899.58 176.13,-896.23 175.48,-901.08"/>
</g>
<!-- tsuki_core_rust::application::scheduler_service -->
<g id="node11" class="node">
<title>tsuki_core_rust::application::scheduler_service</title>
<path fill="#dcf5e4" stroke="#7a7a7a" d="M275.84,-182C275.84,-182 186.84,-182 186.84,-182 180.84,-182 174.84,-176 174.84,-170 174.84,-170 174.84,-158 174.84,-158 174.84,-152 180.84,-146 186.84,-146 186.84,-146 275.84,-146 275.84,-146 281.84,-146 287.84,-152 287.84,-158 287.84,-158 287.84,-170 287.84,-170 287.84,-176 281.84,-182 275.84,-182"/>
<text text-anchor="middle" x="231.34" y="-161.2" font-family="Helvetica,sans-Serif" font-size="11.00">scheduler_service</text>
</g>
<!-- tsuki_core_rust::application::scheduler_service&#45;&gt;tsuki_core_rust::application::event_service -->
<g id="edge39" class="edge">
<title>tsuki_core_rust::application::scheduler_service&#45;&gt;tsuki_core_rust::application::event_service</title>
<path fill="none" stroke="#7f8c8d" stroke-dasharray="5,2" d="M174.55,-171.34C149.84,-177.68 123.2,-189.49 108.34,-211.5 77.8,-256.71 77.8,-657.29 108.34,-702.5 124.05,-725.77 153.06,-737.42 178.96,-743.23"/>
<polygon fill="#7f8c8d" stroke="#7f8c8d" points="178.47,-745.63 185.82,-744.66 179.47,-740.83 178.47,-745.63"/>
</g>
<!-- tsuki_core_rust::application::scheduler_service&#45;&gt;tsuki_core_rust -->
<g id="edge38" class="edge">
<title>tsuki_core_rust::application::scheduler_service&#45;&gt;tsuki_core_rust</title>
<path fill="none" stroke="#7f8c8d" stroke-dasharray="5,2" d="M174.55,-171.34C149.84,-177.68 123.2,-189.49 108.34,-211.5 67.79,-271.54 67.79,-803.46 108.34,-863.5 123.09,-885.35 150.5,-894.8 175.7,-898.64"/>
<polygon fill="#7f8c8d" stroke="#7f8c8d" points="175.48,-901.08 182.74,-899.58 176.13,-896.23 175.48,-901.08"/>
</g>
<!-- tsuki_core_rust::application::trigger_ingress_api -->
<g id="node12" class="node">
<title>tsuki_core_rust::application::trigger_ingress_api</title>
<path fill="#dcf5e4" stroke="#7a7a7a" d="M278.34,-117C278.34,-117 184.34,-117 184.34,-117 178.34,-117 172.34,-111 172.34,-105 172.34,-105 172.34,-93 172.34,-93 172.34,-87 178.34,-81 184.34,-81 184.34,-81 278.34,-81 278.34,-81 284.34,-81 290.34,-87 290.34,-93 290.34,-93 290.34,-105 290.34,-105 290.34,-111 284.34,-117 278.34,-117"/>
<text text-anchor="middle" x="231.34" y="-96.2" font-family="Helvetica,sans-Serif" font-size="11.00">trigger_ingress_api</text>
</g>
<!-- tsuki_core_rust::application::trigger_ingress_api&#45;&gt;tsuki_core_rust::application::event_service -->
<g id="edge41" class="edge">
<title>tsuki_core_rust::application::trigger_ingress_api&#45;&gt;tsuki_core_rust::application::event_service</title>
<path fill="none" stroke="#7f8c8d" stroke-dasharray="5,2" d="M172.3,-106.92C148.25,-113.4 122.75,-125.16 108.34,-146.5 73.76,-197.7 73.76,-651.3 108.34,-702.5 124.05,-725.77 153.06,-737.42 178.96,-743.23"/>
<polygon fill="#7f8c8d" stroke="#7f8c8d" points="178.47,-745.63 185.82,-744.66 179.47,-740.83 178.47,-745.63"/>
</g>
<!-- tsuki_core_rust::application::trigger_ingress_api&#45;&gt;tsuki_core_rust -->
<g id="edge40" class="edge">
<title>tsuki_core_rust::application::trigger_ingress_api&#45;&gt;tsuki_core_rust</title>
<path fill="none" stroke="#7f8c8d" stroke-dasharray="5,2" d="M172.3,-106.92C148.25,-113.4 122.75,-125.16 108.34,-146.5 63.75,-212.52 63.75,-797.48 108.34,-863.5 123.09,-885.35 150.5,-894.8 175.7,-898.64"/>
<polygon fill="#7f8c8d" stroke="#7f8c8d" points="175.48,-901.08 182.74,-899.58 176.13,-896.23 175.48,-901.08"/>
</g>
<!-- tsuki_core_rust::application::usage_service&#45;&gt;tsuki_core_rust -->
<g id="edge42" class="edge">
<title>tsuki_core_rust::application::usage_service&#45;&gt;tsuki_core_rust</title>
<path fill="none" stroke="#7f8c8d" stroke-dasharray="5,2" d="M184.62,-39.01C157.42,-44.61 125.25,-56.46 108.34,-81.5 84.02,-117.5 84.02,-827.5 108.34,-863.5 123.09,-885.35 150.5,-894.8 175.7,-898.64"/>
<polygon fill="#7f8c8d" stroke="#7f8c8d" points="175.48,-901.08 182.74,-899.58 176.13,-896.23 175.48,-901.08"/>
</g>
<!-- tsuki_core_rust&#45;&gt;tsuki_core_rust::application::event_service -->
<g id="edge1" class="edge">
<title>tsuki_core_rust&#45;&gt;tsuki_core_rust::application::event_service</title>
<path fill="none" stroke="#7f8c8d" stroke-dasharray="5,2" d="M182.74,-899.58C155.76,-896.47 124.48,-887.41 108.34,-863.5 91.67,-838.82 91.67,-821.18 108.34,-796.5 123.97,-773.35 152.65,-761.48 178.38,-755.39"/>
<polygon fill="#7f8c8d" stroke="#7f8c8d" points="179.23,-757.71 185.55,-753.82 178.18,-752.93 179.23,-757.71"/>
</g>
<!-- tsuki_core_rust&#45;&gt;tsuki_core_rust::application::module_bootstrap -->
<g id="edge2" class="edge">
<title>tsuki_core_rust&#45;&gt;tsuki_core_rust::application::module_bootstrap</title>
<path fill="none" stroke="#7f8c8d" stroke-dasharray="5,2" d="M182.74,-899.58C155.76,-896.47 124.48,-887.41 108.34,-863.5 83.96,-827.4 83.96,-507.6 108.34,-471.5 121.75,-451.64 144.75,-440.08 167.27,-433.35"/>
<polygon fill="#7f8c8d" stroke="#7f8c8d" points="168.14,-435.66 174.23,-431.42 166.83,-430.93 168.14,-435.66"/>
</g>
</g>
</svg>
